<?xml version="1.0" encoding="utf-8"?>
<!-- Generator: Adobe Illustrator 16.0.3, SVG Export Plug-In . SVG Version: 6.00 Build 0)  -->
<!DOCTYPE svg PUBLIC "-//W3C//DTD SVG 1.1//EN" "http://www.w3.org/Graphics/SVG/1.1/DTD/svg11.dtd">
<svg version="1.1" id="Layer_1" xmlns="http://www.w3.org/2000/svg" xmlns:xlink="http://www.w3.org/1999/xlink" x="0px" y="0px"
	 width="306.183px" height="469px" viewBox="0 0 306.183 469" enable-background="new 0 0 306.183 469" xml:space="preserve">
<g>
	<path d="M296.772,469c-2.33-6.501-1.532-13.435-2.926-20.163c-3.343-16.164-11.039-29.884-20.806-42.705
		c-33.731-44.292-78.071-76.015-124.835-104.751c-33.099-20.339-67.549-38.297-101.601-56.957
		c-10.076-5.521-20.424-10.643-29.934-17.204c-2.947-2.032-4.358-4.378-4.958-8.031c-1.519-9.241-5.211-17.917-8.065-26.805
		c-2.718-8.46-4.134-17.036-3.495-25.923c0.389-5.411,2.003-6.39,6.525-3.362c39.164,26.228,81.116,47.499,122.653,69.551
		c32.955,17.497,65.001,36.552,93.343,61.15c32.353,28.08,56.146,61.835,69.816,102.79c7.021,21.036,9.955,42.721,13.49,64.376
		c0.445,2.731,0.172,5.46-1.002,8.034C302.246,469,299.507,469,296.772,469z"/>
	<path d="M248.701,0c9.719,9.661,18.62,19.913,25.348,31.999c8.82,15.84,14.156,32.817,18.229,50.381
		c5.634,24.283,7.849,48.844,6.802,73.672c-1.556,36.944-7.89,72.803-26.156,105.618c-6.217,11.164-13.91,21.24-24.012,29.26
		c-5.533,4.393-6.99,4.229-11.267-1.424c-4.33-5.727-10.25-9.622-15.877-13.771c-4.106-3.027-7.922-6.336-11.694-9.721
		c-4.732-4.248-4.507-6.262,0.569-10.074c17.797-13.371,35.778-26.563,51.121-42.821c12.506-13.253,22.844-28.309,26.032-46.398
		c4.013-22.766,0.838-44.866-10.653-65.59c-13.863-24.998-35.25-42.398-57.474-59.144c-15.596-11.752-32.535-21.617-47.627-34.071
		c-2.586-2.136-5.283-4.13-5.418-7.915C193.984,0,221.339,0,248.701,0z"/>
	<path d="M47.128,359.891c-0.154-3.942,1.632-6.23,4.63-7.887c22.206-12.25,44.389-24.539,66.581-36.814
		c4.609-2.549,9.22-5.099,13.833-7.642c2.738-1.51,5.629-2.239,8.199,0.03c11.337,10.018,25.117,16.443,37.141,25.48
		c11.102,8.346,11.356,9.473-0.451,16.416c-30.617,17.996-61.308,35.867-91.887,53.927c-3.715,2.193-6.154,2.217-8.822-1.521
		c-8.805-12.336-21.005-22.114-27.373-36.306C48.099,363.614,46.938,361.761,47.128,359.891z"/>
	<path d="M247.962,181.334c9.545,5.61,11.463,13.779,9.054,23.417c-1.861,7.44-8.466,13.433-16.052,14.379
		c-14.959,1.863-30.004,1.27-45.022,1.284c-3.789,0.003-5.871-1.606-5.868-5.579c0.014-20.7,0.033-41.399-0.029-62.099
		c-0.012-3.744,2.108-5.005,5.318-5.741c4.758-1.092,9.313,0.544,13.963,0.781c9.155,0.467,18.231-1.206,27.428-0.295
		c7.822,0.774,13.662,4.306,16.526,11.183c2.925,7.016,2.273,14.203-3.7,20.007C249.055,179.181,248.789,179.952,247.962,181.334z
		 M222.91,191.057c-0.005,0.082-0.007,0.162-0.009,0.243c-1.56,0-3.127-0.118-4.67,0.026c-2.733,0.255-3.428,2.196-3.422,4.565
		c0.006,2.371-0.138,5.142,3.012,5.436c3.459,0.322,7.007,0.237,10.464-0.143c2.346-0.259,3.664-2.146,3.735-4.573
		c0.08-2.69-1.276-4.503-3.892-5.074C226.434,191.167,224.653,191.202,222.91,191.057z M221.194,173.474
		c1.412,0,2.771,0.021,4.127-0.004c2.709-0.05,4.49-1.125,4.445-4.137c-0.043-3.069-2.007-3.9-4.636-3.962
		c-2.327-0.055-4.653-0.119-6.979-0.2c-2.213-0.077-3.057,1.161-3.313,3.185C214.182,173.585,217.126,174.269,221.194,173.474z"/>
	<path d="M135.891,168.55c5.25-6.268,9.692-11.403,13.938-16.695c3.276-4.085,7.354-5.461,12.43-4.675
		c5.24,0.81,10.494,0.758,15.738-0.186c1.891-0.34,4.131-0.957,5.338,1.102c1.418,2.422-0.658,3.973-2.078,5.506
		c-5.563,6.011-11.025,12.127-16.83,17.899c-2.855,2.84-3.262,5.029-1,8.546c7.066,10.991,13.828,22.179,20.564,33.377
		c3.209,5.336,2.352,6.787-3.839,6.971c-4.295,0.127-8.661-0.449-12.875,0.143c-7.979,1.123-12.266-2.51-15.132-9.53
		c-2.325-5.698-5.487-11.053-8.462-16.921c-5.498,3.55-9.49,7.139-8.744,13.836c0.215,1.928-0.052,3.904,0.03,5.854
		c0.185,4.385-1.888,6.559-6.251,6.599c-0.195,0.002-0.391,0.026-0.586,0.025c-22.168-0.113-18.746,2.519-18.94-17.68
		c-0.154-16.013-0.064-32.028-0.012-48.042c0.022-6.906,1.683-8.364,8.456-7.451c2.747,0.371,5.409,0.275,8.147-0.079
		c6.723-0.867,8.968,1.163,9.198,7.795C135.124,158.965,134.458,163.048,135.891,168.55z"/>
	<path d="M232.718,100.861c4.101,0,8.197,0.031,12.298-0.009c3.856-0.038,5.871,1.918,5.914,5.676
		c0.088,7.609,0.055,15.221-0.007,22.831c-0.022,2.702-1.241,4.983-3.436,6.5c-15.973,11.039-33.412,12.526-51.252,6.267
		c-16.744-5.875-22.807-30.137-19.113-42.91c2.822-9.766,6.594-18.269,15.621-23.626c5.439-3.228,11.232-5.483,17.646-5.221
		c7.539,0.308,15.107-0.995,22.602,1.725c7.805,2.832,12.414,8.368,15.799,15.457c1.619,3.389,0.076,5.118-2.985,6.201
		c-5.361,1.898-11.229,0.97-16.599,3.122c-1.801,0.721-3.104-1.027-4.051-2.654c-3.102-5.344-8.133-5.598-13.322-4.556
		c-5.096,1.024-7.824,4.434-8.998,9.565c-1.479,6.47-1.065,12.801,0.353,19.133c0.983,4.396,3.785,7.504,8.285,7.983
		c5.582,0.595,11.521,1.322,15.983-3.329c1.713-1.784,1.115-3.667-1.569-4.228c-0.736-0.153-1.562-0.02-2.32,0.115
		c-3.371,0.598-7.396,1.075-9.058-2.124c-2.065-3.98-1.598-8.776-0.061-13.084c0.807-2.259,3.143-2.773,5.389-2.795
		c4.293-0.042,8.588-0.013,12.881-0.013C232.718,100.877,232.718,100.869,232.718,100.861z"/>
	<path d="M108.005,108.06c0.006-9.963,0.08-19.927-0.028-29.888c-0.047-4.375,1.531-7.639,6.137-7.572
		c13.99,0.203,28.061-1.916,41.945,1.904c11.299,3.11,18.84,16.502,15.063,27.638c-4.604,13.584-11.142,18.276-25.517,18.312
		c-11.8,0.028-11.761,0.028-11.812,11.712c-0.066,15.765,1.598,13.971-14.145,14.088c-0.977,0.008-1.953,0.007-2.93,0
		c-8.113-0.061-8.684-0.599-8.713-8.649C107.974,126.423,108,117.242,108.005,108.06z M138.483,100.812
		c4.801-0.053,8.708-1.076,8.824-5.679c0.121-4.732-4.036-5.549-7.861-5.939c-3.938-0.403-5.66,1.41-5.665,5.392
		C133.776,98.455,134.637,101.191,138.483,100.812z"/>
</g>
</svg>
