<?xml version="1.0" encoding="UTF-8" standalone="no"?>
<!DOCTYPE svg PUBLIC "-//W3C//DTD SVG 1.1//EN"
 "http://www.w3.org/Graphics/SVG/1.1/DTD/svg11.dtd">
<!-- Generated by graphviz version 2.38.0 (20140413.2041)
 -->
<!-- Title: Controller::runSearch Pages: 1 -->
<svg width="817pt" height="522pt"
 viewBox="0.00 0.00 817.00 522.00" xmlns="http://www.w3.org/2000/svg" xmlns:xlink="http://www.w3.org/1999/xlink">
<g id="graph0" class="graph" transform="scale(1 1) rotate(0) translate(4 518)">
<title>Controller::runSearch</title>
<polygon fill="white" stroke="none" points="-4,4 -4,-518 813,-518 813,4 -4,4"/>
<!-- Node386 -->
<g id="node1" class="node"><title>Node386</title>
<polygon fill="#bfbfbf" stroke="black" points="0,-209.5 0,-228.5 108,-228.5 108,-209.5 0,-209.5"/>
<text text-anchor="middle" x="54" y="-216.5" font-family="Helvetica,sans-Serif" font-size="10.00">Controller::runSearch</text>
</g>
<!-- Node387 -->
<g id="node2" class="node"><title>Node387</title>
<g id="a_node2"><a xlink:href="class_controller.html#a891b278fd1aab173430ed881500e59b4" target="_top" xlink:title="Controller::loadLandingPage">
<polygon fill="white" stroke="black" points="311,-418.5 311,-437.5 449,-437.5 449,-418.5 311,-418.5"/>
<text text-anchor="middle" x="380" y="-425.5" font-family="Helvetica,sans-Serif" font-size="10.00">Controller::loadLandingPage</text>
</a>
</g>
</g>
<!-- Node386&#45;&gt;Node387 -->
<g id="edge1" class="edge"><title>Node386&#45;&gt;Node387</title>
<path fill="none" stroke="midnightblue" d="M69.7635,-228.523C121.209,-261.709 292.859,-372.434 355.696,-412.967"/>
<polygon fill="midnightblue" stroke="midnightblue" points="353.849,-415.941 364.15,-418.421 357.644,-410.059 353.849,-415.941"/>
</g>
<!-- Node392 -->
<g id="node7" class="node"><title>Node392</title>
<g id="a_node7"><a xlink:href="class_controller.html#a182166d270e3f7cf700afe58d64ba56d" target="_top" xlink:title="Hides the spinners and filters and loads the landing page. ">
<polygon fill="white" stroke="black" points="319,-204 319,-234 441,-234 441,-204 319,-204"/>
<text text-anchor="start" x="327" y="-222" font-family="Helvetica,sans-Serif" font-size="10.00">Controller::loadTableAnd</text>
<text text-anchor="middle" x="380" y="-211" font-family="Helvetica,sans-Serif" font-size="10.00">GraphPage</text>
</a>
</g>
</g>
<!-- Node386&#45;&gt;Node392 -->
<g id="edge6" class="edge"><title>Node386&#45;&gt;Node392</title>
<path fill="none" stroke="midnightblue" d="M108.139,-219C162.87,-219 248.456,-219 308.747,-219"/>
<polygon fill="midnightblue" stroke="midnightblue" points="308.947,-222.5 318.946,-219 308.946,-215.5 308.947,-222.5"/>
</g>
<!-- Node403 -->
<g id="node18" class="node"><title>Node403</title>
<g id="a_node18"><a xlink:href="class_controller.html#ac89fac8699dcc05b3e5621213dfc1407" target="_top" xlink:title="Parses the data after a search is made. ">
<polygon fill="white" stroke="black" points="144,-122 144,-152 269,-152 269,-122 144,-122"/>
<text text-anchor="start" x="152" y="-140" font-family="Helvetica,sans-Serif" font-size="10.00">Controller::onInteractions</text>
<text text-anchor="middle" x="206.5" y="-129" font-family="Helvetica,sans-Serif" font-size="10.00">Loaded</text>
</a>
</g>
</g>
<!-- Node386&#45;&gt;Node403 -->
<g id="edge20" class="edge"><title>Node386&#45;&gt;Node403</title>
<path fill="none" stroke="midnightblue" d="M72.5588,-209.433C96.0291,-196.645 138.212,-173.662 168.779,-157.007"/>
<polygon fill="midnightblue" stroke="midnightblue" points="170.752,-159.918 177.859,-152.06 167.403,-153.771 170.752,-159.918"/>
</g>
<!-- Node388 -->
<g id="node3" class="node"><title>Node388</title>
<g id="a_node3"><a xlink:href="class_controller.html#aa50c586e32c606982aa0ac12a52eb5ca" target="_top" xlink:title="Controller::showHelp">
<polygon fill="white" stroke="black" points="507,-494.5 507,-513.5 613,-513.5 613,-494.5 507,-494.5"/>
<text text-anchor="middle" x="560" y="-501.5" font-family="Helvetica,sans-Serif" font-size="10.00">Controller::showHelp</text>
</a>
</g>
</g>
<!-- Node387&#45;&gt;Node388 -->
<g id="edge2" class="edge"><title>Node387&#45;&gt;Node388</title>
<path fill="none" stroke="midnightblue" d="M396.91,-437.576C417.876,-449.88 456.179,-471.283 491,-485 496.913,-487.329 503.219,-489.494 509.518,-491.466"/>
<polygon fill="midnightblue" stroke="midnightblue" points="508.768,-494.895 519.351,-494.402 510.77,-488.187 508.768,-494.895"/>
</g>
<!-- Node389 -->
<g id="node4" class="node"><title>Node389</title>
<g id="a_node4"><a xlink:href="class_controller.html#ad36bab0a25de2f6d49d8195130837fab" target="_top" xlink:title="Controller::hideFilters">
<polygon fill="white" stroke="black" points="505.5,-456.5 505.5,-475.5 614.5,-475.5 614.5,-456.5 505.5,-456.5"/>
<text text-anchor="middle" x="560" y="-463.5" font-family="Helvetica,sans-Serif" font-size="10.00">Controller::hideFilters</text>
</a>
</g>
</g>
<!-- Node387&#45;&gt;Node389 -->
<g id="edge3" class="edge"><title>Node387&#45;&gt;Node389</title>
<path fill="none" stroke="midnightblue" d="M425.917,-437.589C449.829,-442.694 479.421,-449.011 504.625,-454.392"/>
<polygon fill="midnightblue" stroke="midnightblue" points="503.896,-457.815 514.406,-456.48 505.357,-450.969 503.896,-457.815"/>
</g>
<!-- Node390 -->
<g id="node5" class="node"><title>Node390</title>
<g id="a_node5"><a xlink:href="class_controller.html#a480dd62f41e7a7e85117cb02d511964c" target="_top" xlink:title="Controller::hideTableSpinner">
<polygon fill="white" stroke="black" points="491,-380.5 491,-399.5 629,-399.5 629,-380.5 491,-380.5"/>
<text text-anchor="middle" x="560" y="-387.5" font-family="Helvetica,sans-Serif" font-size="10.00">Controller::hideTableSpinner</text>
</a>
</g>
</g>
<!-- Node387&#45;&gt;Node390 -->
<g id="edge4" class="edge"><title>Node387&#45;&gt;Node390</title>
<path fill="none" stroke="midnightblue" d="M425.917,-418.411C449.829,-413.306 479.421,-406.989 504.625,-401.608"/>
<polygon fill="midnightblue" stroke="midnightblue" points="505.357,-405.031 514.406,-399.52 503.896,-398.185 505.357,-405.031"/>
</g>
<!-- Node391 -->
<g id="node6" class="node"><title>Node391</title>
<g id="a_node6"><a xlink:href="class_controller.html#a62b4902746d86552983b98d50e0f5201" target="_top" xlink:title="Controller::hideGraphSpinner">
<polygon fill="white" stroke="black" points="666.5,-342.5 666.5,-361.5 807.5,-361.5 807.5,-342.5 666.5,-342.5"/>
<text text-anchor="middle" x="737" y="-349.5" font-family="Helvetica,sans-Serif" font-size="10.00">Controller::hideGraphSpinner</text>
</a>
</g>
</g>
<!-- Node387&#45;&gt;Node391 -->
<g id="edge5" class="edge"><title>Node387&#45;&gt;Node391</title>
<path fill="none" stroke="midnightblue" d="M449.176,-430.239C499.764,-430.122 569.913,-426.181 629,-409 660.514,-399.837 693.334,-380.69 714.178,-367.12"/>
<polygon fill="midnightblue" stroke="midnightblue" points="716.216,-369.968 722.601,-361.513 712.338,-364.141 716.216,-369.968"/>
</g>
<!-- Node392&#45;&gt;Node390 -->
<g id="edge8" class="edge"><title>Node392&#45;&gt;Node390</title>
<path fill="none" stroke="midnightblue" d="M388.463,-234.246C403.695,-263.842 441.174,-329.377 491,-366 496.826,-370.282 503.483,-373.853 510.301,-376.817"/>
<polygon fill="midnightblue" stroke="midnightblue" points="509.047,-380.085 519.635,-380.491 511.612,-373.571 509.047,-380.085"/>
</g>
<!-- Node392&#45;&gt;Node391 -->
<g id="edge9" class="edge"><title>Node392&#45;&gt;Node391</title>
<path fill="none" stroke="midnightblue" d="M390.26,-234.192C406.828,-259.811 444.226,-310.961 491,-333 542.36,-357.2 606.531,-361.374 656.313,-359.803"/>
<polygon fill="midnightblue" stroke="midnightblue" points="656.536,-363.297 666.389,-359.401 656.257,-356.302 656.536,-363.297"/>
</g>
<!-- Node393 -->
<g id="node8" class="node"><title>Node393</title>
<g id="a_node8"><a xlink:href="class_controller.html#ad8f3f7e9b7e5151d986824a08ee3c0e1" target="_top" xlink:title="Controller::showFilters">
<polygon fill="white" stroke="black" points="503.5,-304.5 503.5,-323.5 616.5,-323.5 616.5,-304.5 503.5,-304.5"/>
<text text-anchor="middle" x="560" y="-311.5" font-family="Helvetica,sans-Serif" font-size="10.00">Controller::showFilters</text>
</a>
</g>
</g>
<!-- Node392&#45;&gt;Node393 -->
<g id="edge7" class="edge"><title>Node392&#45;&gt;Node393</title>
<path fill="none" stroke="midnightblue" d="M398.915,-234.202C419.787,-251.213 455.904,-278.54 491,-295 495.994,-297.342 501.333,-299.448 506.743,-301.328"/>
<polygon fill="midnightblue" stroke="midnightblue" points="505.903,-304.735 516.495,-304.471 508.05,-298.072 505.903,-304.735"/>
</g>
<!-- Node394 -->
<g id="node9" class="node"><title>Node394</title>
<g id="a_node9"><a xlink:href="class_controller.html#a72f7e3e7899f384819c0ba4fb0f4f831" target="_top" xlink:title="Checks if there are any results for the table. ">
<polygon fill="white" stroke="black" points="500,-266.5 500,-285.5 620,-285.5 620,-266.5 500,-266.5"/>
<text text-anchor="middle" x="560" y="-273.5" font-family="Helvetica,sans-Serif" font-size="10.00">Controller::resultsFound</text>
</a>
</g>
</g>
<!-- Node392&#45;&gt;Node394 -->
<g id="edge10" class="edge"><title>Node392&#45;&gt;Node394</title>
<path fill="none" stroke="midnightblue" d="M422.592,-234.029C443.092,-241.268 468.241,-249.897 491,-257 498.241,-259.26 505.955,-261.538 513.489,-263.692"/>
<polygon fill="midnightblue" stroke="midnightblue" points="512.662,-267.096 523.237,-266.442 514.563,-260.358 512.662,-267.096"/>
</g>
<!-- Node395 -->
<g id="node10" class="node"><title>Node395</title>
<g id="a_node10"><a xlink:href="class_controller.html#aa5f4573a0f36437529c3884da322261c" target="_top" xlink:title="Controller::hideNoResults">
<polygon fill="white" stroke="black" points="496.5,-228.5 496.5,-247.5 623.5,-247.5 623.5,-228.5 496.5,-228.5"/>
<text text-anchor="middle" x="560" y="-235.5" font-family="Helvetica,sans-Serif" font-size="10.00">Controller::hideNoResults</text>
</a>
</g>
</g>
<!-- Node392&#45;&gt;Node395 -->
<g id="edge11" class="edge"><title>Node392&#45;&gt;Node395</title>
<path fill="none" stroke="midnightblue" d="M441.263,-225.433C455.685,-226.972 471.236,-228.632 486.159,-230.225"/>
<polygon fill="midnightblue" stroke="midnightblue" points="486.054,-233.733 496.369,-231.315 486.797,-226.773 486.054,-233.733"/>
</g>
<!-- Node396 -->
<g id="node11" class="node"><title>Node396</title>
<g id="a_node11"><a xlink:href="class_controller.html#a4324368a8739d02753a66a86d83f6c49" target="_top" xlink:title="Controller::drawTable">
<polygon fill="white" stroke="black" points="506.5,-190.5 506.5,-209.5 613.5,-209.5 613.5,-190.5 506.5,-190.5"/>
<text text-anchor="middle" x="560" y="-197.5" font-family="Helvetica,sans-Serif" font-size="10.00">Controller::drawTable</text>
</a>
</g>
</g>
<!-- Node392&#45;&gt;Node396 -->
<g id="edge12" class="edge"><title>Node392&#45;&gt;Node396</title>
<path fill="none" stroke="midnightblue" d="M441.263,-212.567C458.884,-210.687 478.188,-208.626 495.976,-206.727"/>
<polygon fill="midnightblue" stroke="midnightblue" points="496.677,-210.172 506.249,-205.631 495.934,-203.212 496.677,-210.172"/>
</g>
<!-- Node397 -->
<g id="node12" class="node"><title>Node397</title>
<g id="a_node12"><a xlink:href="class_controller.html#ad3e9409ace2b7cd9e687ca12fd0140d9" target="_top" xlink:title="Controller::drawGraph">
<polygon fill="white" stroke="black" points="505,-152.5 505,-171.5 615,-171.5 615,-152.5 505,-152.5"/>
<text text-anchor="middle" x="560" y="-159.5" font-family="Helvetica,sans-Serif" font-size="10.00">Controller::drawGraph</text>
</a>
</g>
</g>
<!-- Node392&#45;&gt;Node397 -->
<g id="edge13" class="edge"><title>Node392&#45;&gt;Node397</title>
<path fill="none" stroke="midnightblue" d="M426.054,-203.945C435.622,-200.701 445.655,-197.265 455,-194 471.059,-188.388 474.797,-186.181 491,-181 498.144,-178.716 505.757,-176.438 513.208,-174.294"/>
<polygon fill="midnightblue" stroke="midnightblue" points="514.187,-177.654 522.856,-171.563 512.28,-170.919 514.187,-177.654"/>
</g>
<!-- Node400 -->
<g id="node15" class="node"><title>Node400</title>
<g id="a_node15"><a xlink:href="class_controller.html#aa40fabb4cb727a3ddc87b1570e26bedf" target="_top" xlink:title="Controller::hideTable">
<polygon fill="white" stroke="black" points="507.5,-114.5 507.5,-133.5 612.5,-133.5 612.5,-114.5 507.5,-114.5"/>
<text text-anchor="middle" x="560" y="-121.5" font-family="Helvetica,sans-Serif" font-size="10.00">Controller::hideTable</text>
</a>
</g>
</g>
<!-- Node392&#45;&gt;Node400 -->
<g id="edge17" class="edge"><title>Node392&#45;&gt;Node400</title>
<path fill="none" stroke="midnightblue" d="M438.218,-203.839C444.165,-201.066 449.892,-197.811 455,-194 477.238,-177.409 468.327,-158.992 491,-143 493.841,-140.996 496.886,-139.203 500.057,-137.599"/>
<polygon fill="midnightblue" stroke="midnightblue" points="501.508,-140.785 509.256,-133.559 498.693,-134.376 501.508,-140.785"/>
</g>
<!-- Node401 -->
<g id="node16" class="node"><title>Node401</title>
<g id="a_node16"><a xlink:href="class_controller.html#ac983afc87df10134165f93114ae68902" target="_top" xlink:title="Controller::hideGraph">
<polygon fill="white" stroke="black" points="506,-76.5 506,-95.5 614,-95.5 614,-76.5 506,-76.5"/>
<text text-anchor="middle" x="560" y="-83.5" font-family="Helvetica,sans-Serif" font-size="10.00">Controller::hideGraph</text>
</a>
</g>
</g>
<!-- Node392&#45;&gt;Node401 -->
<g id="edge18" class="edge"><title>Node392&#45;&gt;Node401</title>
<path fill="none" stroke="midnightblue" d="M440.992,-203.99C446.081,-201.206 450.857,-197.908 455,-194 486.042,-164.725 459.188,-133.437 491,-105 492.919,-103.284 494.981,-101.723 497.149,-100.301"/>
<polygon fill="midnightblue" stroke="midnightblue" points="498.868,-103.35 505.963,-95.4807 495.51,-97.208 498.868,-103.35"/>
</g>
<!-- Node402 -->
<g id="node17" class="node"><title>Node402</title>
<g id="a_node17"><a xlink:href="class_controller.html#afdfde364c436c0f73ea14704078f24b6" target="_top" xlink:title="Controller::showNoResults">
<polygon fill="white" stroke="black" points="494.5,-38.5 494.5,-57.5 625.5,-57.5 625.5,-38.5 494.5,-38.5"/>
<text text-anchor="middle" x="560" y="-45.5" font-family="Helvetica,sans-Serif" font-size="10.00">Controller::showNoResults</text>
</a>
</g>
</g>
<!-- Node392&#45;&gt;Node402 -->
<g id="edge19" class="edge"><title>Node392&#45;&gt;Node402</title>
<path fill="none" stroke="midnightblue" d="M441.09,-204.652C446.223,-201.735 450.98,-198.224 455,-194 495.444,-151.5 449.437,-108.407 491,-67 492.465,-65.5401 494.033,-64.1901 495.683,-62.9419"/>
<polygon fill="midnightblue" stroke="midnightblue" points="497.838,-65.726 504.529,-57.5111 494.175,-59.7606 497.838,-65.726"/>
</g>
<!-- Node397&#45;&gt;Node391 -->
<g id="edge14" class="edge"><title>Node397&#45;&gt;Node391</title>
<path fill="none" stroke="midnightblue" d="M611.648,-171.555C617.834,-174.016 623.797,-177.109 629,-181 682.63,-221.103 715.841,-296.702 729.215,-332.396"/>
<polygon fill="midnightblue" stroke="midnightblue" points="726.036,-333.896 732.729,-342.108 732.618,-331.514 726.036,-333.896"/>
</g>
<!-- Node398 -->
<g id="node13" class="node"><title>Node398</title>
<g id="a_node13"><a xlink:href="class_controller.html#ac48a01ce37f1bbf26cc887f44f58d33d" target="_top" xlink:title="Controller::showGraph">
<polygon fill="white" stroke="black" points="680.5,-171.5 680.5,-190.5 793.5,-190.5 793.5,-171.5 680.5,-171.5"/>
<text text-anchor="middle" x="737" y="-178.5" font-family="Helvetica,sans-Serif" font-size="10.00">Controller::showGraph</text>
</a>
</g>
</g>
<!-- Node397&#45;&gt;Node398 -->
<g id="edge15" class="edge"><title>Node397&#45;&gt;Node398</title>
<path fill="none" stroke="midnightblue" d="M615.412,-167.908C632.771,-169.792 652.167,-171.898 670.242,-173.861"/>
<polygon fill="midnightblue" stroke="midnightblue" points="670.095,-177.365 680.415,-174.965 670.851,-170.406 670.095,-177.365"/>
</g>
<!-- Node399 -->
<g id="node14" class="node"><title>Node399</title>
<g id="a_node14"><a xlink:href="class_controller.html#af36dc0f546549bde9b2fecae69c5f637" target="_top" xlink:title="Controller::showGraphLegend">
<polygon fill="white" stroke="black" points="665,-133.5 665,-152.5 809,-152.5 809,-133.5 665,-133.5"/>
<text text-anchor="middle" x="737" y="-140.5" font-family="Helvetica,sans-Serif" font-size="10.00">Controller::showGraphLegend</text>
</a>
</g>
</g>
<!-- Node397&#45;&gt;Node399 -->
<g id="edge16" class="edge"><title>Node397&#45;&gt;Node399</title>
<path fill="none" stroke="midnightblue" d="M615.412,-156.092C627.885,-154.738 641.41,-153.27 654.74,-151.822"/>
<polygon fill="midnightblue" stroke="midnightblue" points="655.312,-155.281 664.876,-150.722 654.557,-148.322 655.312,-155.281"/>
</g>
<!-- Node403&#45;&gt;Node392 -->
<g id="edge28" class="edge"><title>Node403&#45;&gt;Node392</title>
<path fill="none" stroke="midnightblue" d="M230.427,-152.202C249.746,-164.567 278.413,-181.89 305,-194 309.936,-196.248 315.137,-198.405 320.398,-200.442"/>
<polygon fill="midnightblue" stroke="midnightblue" points="319.298,-203.767 329.89,-203.977 321.74,-197.207 319.298,-203.767"/>
</g>
<!-- Node404 -->
<g id="node19" class="node"><title>Node404</title>
<g id="a_node19"><a xlink:href="class_controller.html#aa19ef1060cd15165d22abaa07860731b" target="_top" xlink:title="Controller::cleanUpData">
<polygon fill="white" stroke="black" points="320.5,-165.5 320.5,-184.5 439.5,-184.5 439.5,-165.5 320.5,-165.5"/>
<text text-anchor="middle" x="380" y="-172.5" font-family="Helvetica,sans-Serif" font-size="10.00">Controller::cleanUpData</text>
</a>
</g>
</g>
<!-- Node403&#45;&gt;Node404 -->
<g id="edge21" class="edge"><title>Node403&#45;&gt;Node404</title>
<path fill="none" stroke="midnightblue" d="M269.415,-150.719C287.949,-154.825 308.095,-159.289 326,-163.257"/>
<polygon fill="midnightblue" stroke="midnightblue" points="325.452,-166.72 335.972,-165.466 326.966,-159.886 325.452,-166.72"/>
</g>
<!-- Node405 -->
<g id="node20" class="node"><title>Node405</title>
<g id="a_node20"><a xlink:href="class_controller.html#ae936d1f71459d7e96ade47f99cba8998" target="_top" xlink:title="Searchs for DGD Interactions. ">
<polygon fill="white" stroke="black" points="314,-127.5 314,-146.5 446,-146.5 446,-127.5 314,-127.5"/>
<text text-anchor="middle" x="380" y="-134.5" font-family="Helvetica,sans-Serif" font-size="10.00">Controller::filterInteractions</text>
</a>
</g>
</g>
<!-- Node403&#45;&gt;Node405 -->
<g id="edge22" class="edge"><title>Node403&#45;&gt;Node405</title>
<path fill="none" stroke="midnightblue" d="M269.415,-137C280.621,-137 292.416,-137 303.949,-137"/>
<polygon fill="midnightblue" stroke="midnightblue" points="303.995,-140.5 313.995,-137 303.995,-133.5 303.995,-140.5"/>
</g>
<!-- Node406 -->
<g id="node21" class="node"><title>Node406</title>
<g id="a_node21"><a xlink:href="class_controller.html#aa033c0428eb72a0332422fbb1cf3a9c8" target="_top" xlink:title="Controller::colorInteractions">
<polygon fill="white" stroke="black" points="312.5,-89.5 312.5,-108.5 447.5,-108.5 447.5,-89.5 312.5,-89.5"/>
<text text-anchor="middle" x="380" y="-96.5" font-family="Helvetica,sans-Serif" font-size="10.00">Controller::colorInteractions</text>
</a>
</g>
</g>
<!-- Node403&#45;&gt;Node406 -->
<g id="edge23" class="edge"><title>Node403&#45;&gt;Node406</title>
<path fill="none" stroke="midnightblue" d="M269.415,-123.281C287.949,-119.175 308.095,-114.711 326,-110.743"/>
<polygon fill="midnightblue" stroke="midnightblue" points="326.966,-114.114 335.972,-108.534 325.452,-107.28 326.966,-114.114"/>
</g>
<!-- Node407 -->
<g id="node22" class="node"><title>Node407</title>
<g id="a_node22"><a xlink:href="class_controller.html#a1b2394dad86c46445f6f2651f71ecb35" target="_top" xlink:title="Controller::addSynonyms">
<polygon fill="white" stroke="black" points="317,-51.5 317,-70.5 443,-70.5 443,-51.5 317,-51.5"/>
<text text-anchor="middle" x="380" y="-58.5" font-family="Helvetica,sans-Serif" font-size="10.00">Controller::addSynonyms</text>
</a>
</g>
</g>
<!-- Node403&#45;&gt;Node407 -->
<g id="edge24" class="edge"><title>Node403&#45;&gt;Node407</title>
<path fill="none" stroke="midnightblue" d="M229.432,-121.782C248.616,-109.069 277.618,-91.2613 305,-80 310.877,-77.5831 317.145,-75.4055 323.453,-73.4621"/>
<polygon fill="midnightblue" stroke="midnightblue" points="324.714,-76.741 333.348,-70.6004 322.769,-70.0166 324.714,-76.741"/>
</g>
<!-- Node410 -->
<g id="node25" class="node"><title>Node410</title>
<g id="a_node25"><a xlink:href="class_controller.html#a5de982c1c102a1d45eb48efe0c8358c0" target="_top" xlink:title="Controller::highlightInteractions">
<polygon fill="white" stroke="black" points="305,-13.5 305,-32.5 455,-32.5 455,-13.5 305,-13.5"/>
<text text-anchor="middle" x="380" y="-20.5" font-family="Helvetica,sans-Serif" font-size="10.00">Controller::highlightInteractions</text>
</a>
</g>
</g>
<!-- Node403&#45;&gt;Node410 -->
<g id="edge27" class="edge"><title>Node403&#45;&gt;Node410</title>
<path fill="none" stroke="midnightblue" d="M218.924,-121.655C235.513,-100.485 268.324,-62.6052 305,-42 309.12,-39.6855 313.526,-37.6473 318.059,-35.8532"/>
<polygon fill="midnightblue" stroke="midnightblue" points="319.239,-39.1483 327.491,-32.5032 316.896,-32.552 319.239,-39.1483"/>
</g>
<!-- Node408 -->
<g id="node23" class="node"><title>Node408</title>
<g id="a_node23"><a xlink:href="class_synonym.html#a4dccfc549c3e1a7d97437a773693f57b" target="_top" xlink:title="Synonym::findSynonyms">
<polygon fill="white" stroke="black" points="497.5,-0.5 497.5,-19.5 622.5,-19.5 622.5,-0.5 497.5,-0.5"/>
<text text-anchor="middle" x="560" y="-7.5" font-family="Helvetica,sans-Serif" font-size="10.00">Synonym::findSynonyms</text>
</a>
</g>
</g>
<!-- Node407&#45;&gt;Node408 -->
<g id="edge25" class="edge"><title>Node407&#45;&gt;Node408</title>
<path fill="none" stroke="midnightblue" d="M421.136,-51.4363C432.171,-48.6059 444.099,-45.3594 455,-42 471.257,-36.9902 474.797,-34.1813 491,-29 498.144,-26.7156 505.757,-24.4377 513.208,-22.2938"/>
<polygon fill="midnightblue" stroke="midnightblue" points="514.187,-25.6544 522.856,-19.5634 512.28,-18.919 514.187,-25.6544"/>
</g>
<!-- Node409 -->
<g id="node24" class="node"><title>Node409</title>
<g id="a_node24"><a xlink:href="class_synonym.html#a1cf040e4e5526070e16147fde014eacb" target="_top" xlink:title="Synonym::buildIdSymbolMap">
<polygon fill="white" stroke="black" points="665.5,-0.5 665.5,-19.5 808.5,-19.5 808.5,-0.5 665.5,-0.5"/>
<text text-anchor="middle" x="737" y="-7.5" font-family="Helvetica,sans-Serif" font-size="10.00">Synonym::buildIdSymbolMap</text>
</a>
</g>
</g>
<!-- Node408&#45;&gt;Node409 -->
<g id="edge26" class="edge"><title>Node408&#45;&gt;Node409</title>
<path fill="none" stroke="midnightblue" d="M622.698,-10C633.139,-10 644.117,-10 654.962,-10"/>
<polygon fill="midnightblue" stroke="midnightblue" points="655.298,-13.5001 665.298,-10 655.298,-6.5001 655.298,-13.5001"/>
</g>
</g>
</svg>
