<?xml version="1.0" encoding="UTF-8" standalone="no"?>
<!DOCTYPE svg PUBLIC "-//W3C//DTD SVG 1.1//EN"
 "http://www.w3.org/Graphics/SVG/1.1/DTD/svg11.dtd">
<!-- Generated by graphviz version 2.38.0 (20140413.2041)
 -->
<!-- Title: Controller::runSearch Pages: 1 -->
<svg width="1170pt" height="750pt"
 viewBox="0.00 0.00 1170.00 750.00" xmlns="http://www.w3.org/2000/svg" xmlns:xlink="http://www.w3.org/1999/xlink">
<g id="graph0" class="graph" transform="scale(1 1) rotate(0) translate(4 746)">
<title>Controller::runSearch</title>
<polygon fill="white" stroke="none" points="-4,4 -4,-746 1166,-746 1166,4 -4,4"/>
<!-- Node370 -->
<g id="node1" class="node"><title>Node370</title>
<polygon fill="#bfbfbf" stroke="black" points="0,-285.5 0,-304.5 108,-304.5 108,-285.5 0,-285.5"/>
<text text-anchor="middle" x="54" y="-292.5" font-family="Helvetica,sans-Serif" font-size="10.00">Controller::runSearch</text>
</g>
<!-- Node371 -->
<g id="node2" class="node"><title>Node371</title>
<g id="a_node2"><a xlink:href="class_controller.html#a5dd49db62baf8413d96b406f4c9284e1" target="_top" xlink:title="Controller::hideHelp">
<polygon fill="white" stroke="black" points="163.5,-722.5 163.5,-741.5 264.5,-741.5 264.5,-722.5 163.5,-722.5"/>
<text text-anchor="middle" x="214" y="-729.5" font-family="Helvetica,sans-Serif" font-size="10.00">Controller::hideHelp</text>
</a>
</g>
</g>
<!-- Node370&#45;&gt;Node371 -->
<g id="edge1" class="edge"><title>Node370&#45;&gt;Node371</title>
<path fill="none" stroke="midnightblue" d="M55.8063,-304.592C60.6905,-360.565 87.9968,-644.68 144,-708 147.431,-711.879 151.522,-715.131 155.976,-717.857"/>
<polygon fill="midnightblue" stroke="midnightblue" points="154.42,-720.993 164.911,-722.48 157.637,-714.776 154.42,-720.993"/>
</g>
<!-- Node372 -->
<g id="node3" class="node"><title>Node372</title>
<g id="a_node3"><a xlink:href="class_controller.html#aa40fabb4cb727a3ddc87b1570e26bedf" target="_top" xlink:title="Controller::hideTable">
<polygon fill="white" stroke="black" points="858,-646.5 858,-665.5 963,-665.5 963,-646.5 858,-646.5"/>
<text text-anchor="middle" x="910.5" y="-653.5" font-family="Helvetica,sans-Serif" font-size="10.00">Controller::hideTable</text>
</a>
</g>
</g>
<!-- Node370&#45;&gt;Node372 -->
<g id="edge2" class="edge"><title>Node370&#45;&gt;Node372</title>
<path fill="none" stroke="midnightblue" d="M54.6869,-304.549C53.834,-346.849 56.057,-519.327 144,-612 222.316,-694.528 272.727,-694 386.5,-694 386.5,-694 386.5,-694 555,-694 658.096,-694 777.101,-677.914 847.673,-666.674"/>
<polygon fill="midnightblue" stroke="midnightblue" points="848.411,-670.101 857.726,-665.054 847.297,-663.19 848.411,-670.101"/>
</g>
<!-- Node373 -->
<g id="node4" class="node"><title>Node373</title>
<g id="a_node4"><a xlink:href="class_controller.html#ac983afc87df10134165f93114ae68902" target="_top" xlink:title="Controller::hideGraph">
<polygon fill="white" stroke="black" points="856.5,-532.5 856.5,-551.5 964.5,-551.5 964.5,-532.5 856.5,-532.5"/>
<text text-anchor="middle" x="910.5" y="-539.5" font-family="Helvetica,sans-Serif" font-size="10.00">Controller::hideGraph</text>
</a>
</g>
</g>
<!-- Node370&#45;&gt;Node373 -->
<g id="edge3" class="edge"><title>Node370&#45;&gt;Node373</title>
<path fill="none" stroke="midnightblue" d="M55.04,-304.531C55.7493,-343.132 63.8244,-489.209 144,-561 301.117,-701.687 407.076,-619.264 617,-599 704.687,-590.536 805.132,-568.114 862.569,-554.046"/>
<polygon fill="midnightblue" stroke="midnightblue" points="863.569,-557.405 872.437,-551.608 861.889,-550.609 863.569,-557.405"/>
</g>
<!-- Node374 -->
<g id="node5" class="node"><title>Node374</title>
<g id="a_node5"><a xlink:href="class_controller.html#ab64e45aaab6bc6a785525d72b31105f1" target="_top" xlink:title="Controller::hideGraphLegend">
<polygon fill="white" stroke="black" points="144,-190.5 144,-209.5 284,-209.5 284,-190.5 144,-190.5"/>
<text text-anchor="middle" x="214" y="-197.5" font-family="Helvetica,sans-Serif" font-size="10.00">Controller::hideGraphLegend</text>
</a>
</g>
</g>
<!-- Node370&#45;&gt;Node374 -->
<g id="edge4" class="edge"><title>Node370&#45;&gt;Node374</title>
<path fill="none" stroke="midnightblue" d="M64.6029,-285.479C80.1092,-270.559 112.154,-241.565 144,-224 151.746,-219.727 160.394,-216.001 168.876,-212.841"/>
<polygon fill="midnightblue" stroke="midnightblue" points="170.055,-216.137 178.326,-209.515 167.731,-209.534 170.055,-216.137"/>
</g>
<!-- Node375 -->
<g id="node6" class="node"><title>Node375</title>
<g id="a_node6"><a xlink:href="class_controller.html#ae5ba5702288417b49b750cabccd4f17b" target="_top" xlink:title="Controller::hideGraphAbsent">
<polygon fill="white" stroke="black" points="144.5,-152.5 144.5,-171.5 283.5,-171.5 283.5,-152.5 144.5,-152.5"/>
<text text-anchor="middle" x="214" y="-159.5" font-family="Helvetica,sans-Serif" font-size="10.00">Controller::hideGraphAbsent</text>
</a>
</g>
</g>
<!-- Node370&#45;&gt;Node375 -->
<g id="edge5" class="edge"><title>Node370&#45;&gt;Node375</title>
<path fill="none" stroke="midnightblue" d="M59.7453,-285.353C71.0942,-263.312 102.016,-209.008 144,-181 147.075,-178.949 150.367,-177.117 153.784,-175.483"/>
<polygon fill="midnightblue" stroke="midnightblue" points="155.187,-178.69 163.059,-171.6 152.483,-172.233 155.187,-178.69"/>
</g>
<!-- Node376 -->
<g id="node7" class="node"><title>Node376</title>
<g id="a_node7"><a xlink:href="class_controller.html#aa5f4573a0f36437529c3884da322261c" target="_top" xlink:title="Controller::hideNoResults">
<polygon fill="white" stroke="black" points="1026.5,-285.5 1026.5,-304.5 1153.5,-304.5 1153.5,-285.5 1026.5,-285.5"/>
<text text-anchor="middle" x="1090" y="-292.5" font-family="Helvetica,sans-Serif" font-size="10.00">Controller::hideNoResults</text>
</a>
</g>
</g>
<!-- Node370&#45;&gt;Node376 -->
<g id="edge6" class="edge"><title>Node370&#45;&gt;Node376</title>
<path fill="none" stroke="midnightblue" d="M108.054,-290.082C173.466,-284.453 288.069,-276 386.5,-276 386.5,-276 386.5,-276 729,-276 828.472,-276 943.189,-283.323 1015.88,-288.877"/>
<polygon fill="midnightblue" stroke="midnightblue" points="1016.06,-292.401 1026.3,-289.682 1016.6,-285.421 1016.06,-292.401"/>
</g>
<!-- Node377 -->
<g id="node8" class="node"><title>Node377</title>
<g id="a_node8"><a xlink:href="class_controller.html#a480dd62f41e7a7e85117cb02d511964c" target="_top" xlink:title="Controller::hideTableSpinner">
<polygon fill="white" stroke="black" points="1021,-342.5 1021,-361.5 1159,-361.5 1159,-342.5 1021,-342.5"/>
<text text-anchor="middle" x="1090" y="-349.5" font-family="Helvetica,sans-Serif" font-size="10.00">Controller::hideTableSpinner</text>
</a>
</g>
</g>
<!-- Node370&#45;&gt;Node377 -->
<g id="edge7" class="edge"><title>Node370&#45;&gt;Node377</title>
<path fill="none" stroke="midnightblue" d="M60.024,-304.754C71.5135,-325.84 101.991,-375.277 144,-394 200.833,-419.33 221.799,-395.622 284,-394 550.923,-387.042 867.123,-367.126 1010.88,-357.432"/>
<polygon fill="midnightblue" stroke="midnightblue" points="1011.19,-360.919 1020.93,-356.752 1010.72,-353.935 1011.19,-360.919"/>
</g>
<!-- Node378 -->
<g id="node9" class="node"><title>Node378</title>
<g id="a_node9"><a xlink:href="class_controller.html#a62b4902746d86552983b98d50e0f5201" target="_top" xlink:title="Controller::hideGraphSpinner">
<polygon fill="white" stroke="black" points="1019.5,-380.5 1019.5,-399.5 1160.5,-399.5 1160.5,-380.5 1019.5,-380.5"/>
<text text-anchor="middle" x="1090" y="-387.5" font-family="Helvetica,sans-Serif" font-size="10.00">Controller::hideGraphSpinner</text>
</a>
</g>
</g>
<!-- Node370&#45;&gt;Node378 -->
<g id="edge8" class="edge"><title>Node370&#45;&gt;Node378</title>
<path fill="none" stroke="midnightblue" d="M83.5695,-304.589C100.884,-310.088 123.515,-316.726 144,-321 250.365,-343.191 277.845,-352 386.5,-352 386.5,-352 386.5,-352 729,-352 832.18,-352 951.08,-367.629 1023.1,-378.84"/>
<polygon fill="midnightblue" stroke="midnightblue" points="1022.96,-382.361 1033.38,-380.46 1024.05,-375.446 1022.96,-382.361"/>
</g>
<!-- Node379 -->
<g id="node10" class="node"><title>Node379</title>
<g id="a_node10"><a xlink:href="class_controller.html#aa50c586e32c606982aa0ac12a52eb5ca" target="_top" xlink:title="Controller::showHelp">
<polygon fill="white" stroke="black" points="161,-114.5 161,-133.5 267,-133.5 267,-114.5 161,-114.5"/>
<text text-anchor="middle" x="214" y="-121.5" font-family="Helvetica,sans-Serif" font-size="10.00">Controller::showHelp</text>
</a>
</g>
</g>
<!-- Node370&#45;&gt;Node379 -->
<g id="edge9" class="edge"><title>Node370&#45;&gt;Node379</title>
<path fill="none" stroke="midnightblue" d="M57.7725,-285.447C66.0674,-258.604 93.311,-181.927 144,-143 146.434,-141.131 149.041,-139.445 151.765,-137.925"/>
<polygon fill="midnightblue" stroke="midnightblue" points="153.278,-141.082 160.793,-133.613 150.261,-134.765 153.278,-141.082"/>
</g>
<!-- Node380 -->
<g id="node11" class="node"><title>Node380</title>
<g id="a_node11"><a xlink:href="class_controller.html#ad36bab0a25de2f6d49d8195130837fab" target="_top" xlink:title="Controller::hideFilters">
<polygon fill="white" stroke="black" points="159.5,-76.5 159.5,-95.5 268.5,-95.5 268.5,-76.5 159.5,-76.5"/>
<text text-anchor="middle" x="214" y="-83.5" font-family="Helvetica,sans-Serif" font-size="10.00">Controller::hideFilters</text>
</a>
</g>
</g>
<!-- Node370&#45;&gt;Node380 -->
<g id="edge10" class="edge"><title>Node370&#45;&gt;Node380</title>
<path fill="none" stroke="midnightblue" d="M56.5893,-285.394C62.2565,-254.262 84.4158,-155.26 144,-105 145.994,-103.318 148.126,-101.783 150.359,-100.384"/>
<polygon fill="midnightblue" stroke="midnightblue" points="152.175,-103.384 159.396,-95.6309 148.916,-97.1885 152.175,-103.384"/>
</g>
<!-- Node381 -->
<g id="node12" class="node"><title>Node381</title>
<g id="a_node12"><a xlink:href="class_controller.html#ad8f3f7e9b7e5151d986824a08ee3c0e1" target="_top" xlink:title="Controller::showFilters">
<polygon fill="white" stroke="black" points="157.5,-38.5 157.5,-57.5 270.5,-57.5 270.5,-38.5 157.5,-38.5"/>
<text text-anchor="middle" x="214" y="-45.5" font-family="Helvetica,sans-Serif" font-size="10.00">Controller::showFilters</text>
</a>
</g>
</g>
<!-- Node370&#45;&gt;Node381 -->
<g id="edge11" class="edge"><title>Node370&#45;&gt;Node381</title>
<path fill="none" stroke="midnightblue" d="M55.799,-285.036C59.1851,-249.635 75.515,-128.742 144,-67 145.725,-65.4452 147.565,-64.0162 149.495,-62.7029"/>
<polygon fill="midnightblue" stroke="midnightblue" points="151.46,-65.6134 158.453,-57.6542 148.022,-59.5154 151.46,-65.6134"/>
</g>
<!-- Node382 -->
<g id="node13" class="node"><title>Node382</title>
<g id="a_node13"><a xlink:href="class_controller.html#afdfde364c436c0f73ea14704078f24b6" target="_top" xlink:title="Controller::showNoResults">
<polygon fill="white" stroke="black" points="1024.5,-247.5 1024.5,-266.5 1155.5,-266.5 1155.5,-247.5 1024.5,-247.5"/>
<text text-anchor="middle" x="1090" y="-254.5" font-family="Helvetica,sans-Serif" font-size="10.00">Controller::showNoResults</text>
</a>
</g>
</g>
<!-- Node370&#45;&gt;Node382 -->
<g id="edge12" class="edge"><title>Node370&#45;&gt;Node382</title>
<path fill="none" stroke="midnightblue" d="M88.0839,-285.459C147.363,-269.233 275.838,-238 386.5,-238 386.5,-238 386.5,-238 729,-238 827.779,-238 941.592,-245.222 1014.36,-250.76"/>
<polygon fill="midnightblue" stroke="midnightblue" points="1014.11,-254.251 1024.35,-251.53 1014.65,-247.272 1014.11,-254.251"/>
</g>
<!-- Node383 -->
<g id="node14" class="node"><title>Node383</title>
<g id="a_node14"><a xlink:href="class_controller.html#adc6812e599ea07ed0e42612a2549a0b9" target="_top" xlink:title="Controller::showSpinners">
<polygon fill="white" stroke="black" points="848,-418.5 848,-437.5 973,-437.5 973,-418.5 848,-418.5"/>
<text text-anchor="middle" x="910.5" y="-425.5" font-family="Helvetica,sans-Serif" font-size="10.00">Controller::showSpinners</text>
</a>
</g>
</g>
<!-- Node370&#45;&gt;Node383 -->
<g id="edge13" class="edge"><title>Node370&#45;&gt;Node383</title>
<path fill="none" stroke="midnightblue" d="M63.4219,-304.727C77.9861,-320.779 109.635,-352.39 144,-366 269.067,-415.532 672.538,-425.5 837.849,-427.5"/>
<polygon fill="midnightblue" stroke="midnightblue" points="837.875,-431.001 847.915,-427.616 837.956,-424.001 837.875,-431.001"/>
</g>
<!-- Node384 -->
<g id="node15" class="node"><title>Node384</title>
<g id="a_node15"><a xlink:href="class_controller.html#aa19ef1060cd15165d22abaa07860731b" target="_top" xlink:title="Controller::cleanUpData">
<polygon fill="white" stroke="black" points="154.5,-0.5 154.5,-19.5 273.5,-19.5 273.5,-0.5 154.5,-0.5"/>
<text text-anchor="middle" x="214" y="-7.5" font-family="Helvetica,sans-Serif" font-size="10.00">Controller::cleanUpData</text>
</a>
</g>
</g>
<!-- Node370&#45;&gt;Node384 -->
<g id="edge14" class="edge"><title>Node370&#45;&gt;Node384</title>
<path fill="none" stroke="midnightblue" d="M55.1625,-285.333C56.3517,-246.821 66.0447,-102.843 144,-29 145.649,-27.4379 147.414,-26.0021 149.271,-24.6824"/>
<polygon fill="midnightblue" stroke="midnightblue" points="151.065,-27.6878 157.919,-19.6088 147.523,-21.6501 151.065,-27.6878"/>
</g>
<!-- Node385 -->
<g id="node16" class="node"><title>Node385</title>
<g id="a_node16"><a xlink:href="class_controller.html#ae936d1f71459d7e96ade47f99cba8998" target="_top" xlink:title="Searchs for DGD Interactions. ">
<polygon fill="white" stroke="black" points="148,-532.5 148,-551.5 280,-551.5 280,-532.5 148,-532.5"/>
<text text-anchor="middle" x="214" y="-539.5" font-family="Helvetica,sans-Serif" font-size="10.00">Controller::filterInteractions</text>
</a>
</g>
</g>
<!-- Node370&#45;&gt;Node385 -->
<g id="edge15" class="edge"><title>Node370&#45;&gt;Node385</title>
<path fill="none" stroke="midnightblue" d="M60.6347,-304.755C74.4161,-328.511 111.105,-391.15 144,-442 162.891,-471.202 186.072,-504.271 200.179,-524.112"/>
<polygon fill="midnightblue" stroke="midnightblue" points="197.489,-526.368 206.146,-532.475 203.187,-522.302 197.489,-526.368"/>
</g>
<!-- Node391 -->
<g id="node22" class="node"><title>Node391</title>
<g id="a_node22"><a xlink:href="class_controller.html#a6b6c73d8e79d7617bf8fba4df4d2e10c" target="_top" xlink:title="Controller::noResultsFound">
<polygon fill="white" stroke="black" points="843.5,-304.5 843.5,-323.5 977.5,-323.5 977.5,-304.5 843.5,-304.5"/>
<text text-anchor="middle" x="910.5" y="-311.5" font-family="Helvetica,sans-Serif" font-size="10.00">Controller::noResultsFound</text>
</a>
</g>
</g>
<!-- Node370&#45;&gt;Node391 -->
<g id="edge38" class="edge"><title>Node370&#45;&gt;Node391</title>
<path fill="none" stroke="midnightblue" d="M108.054,-299.918C173.466,-305.547 288.069,-314 386.5,-314 386.5,-314 386.5,-314 555,-314 650.763,-314 761.077,-314 832.876,-314"/>
<polygon fill="midnightblue" stroke="midnightblue" points="833.184,-317.5 843.184,-314 833.184,-310.5 833.184,-317.5"/>
</g>
<!-- Node385&#45;&gt;Node372 -->
<g id="edge16" class="edge"><title>Node385&#45;&gt;Node372</title>
<path fill="none" stroke="midnightblue" d="M228.496,-551.558C247.78,-564.676 284.789,-587.896 320,-599 505.243,-657.417 738.092,-660.658 847.421,-658.344"/>
<polygon fill="midnightblue" stroke="midnightblue" points="847.695,-661.839 857.61,-658.105 847.53,-654.841 847.695,-661.839"/>
</g>
<!-- Node385&#45;&gt;Node373 -->
<g id="edge17" class="edge"><title>Node385&#45;&gt;Node373</title>
<path fill="none" stroke="midnightblue" d="M280.025,-542C412.991,-542 714.517,-542 846.099,-542"/>
<polygon fill="midnightblue" stroke="midnightblue" points="846.408,-545.5 856.408,-542 846.408,-538.5 846.408,-545.5"/>
</g>
<!-- Node385&#45;&gt;Node383 -->
<g id="edge18" class="edge"><title>Node385&#45;&gt;Node383</title>
<path fill="none" stroke="midnightblue" d="M273.018,-532.477C400.556,-511.542 704.787,-461.603 841.235,-439.205"/>
<polygon fill="midnightblue" stroke="midnightblue" points="841.858,-442.65 851.159,-437.577 840.724,-435.743 841.858,-442.65"/>
</g>
<!-- Node386 -->
<g id="node17" class="node"><title>Node386</title>
<g id="a_node17"><a xlink:href="class_controller.html#aa033c0428eb72a0332422fbb1cf3a9c8" target="_top" xlink:title="Controller::colorInteractions">
<polygon fill="white" stroke="black" points="320,-570.5 320,-589.5 455,-589.5 455,-570.5 320,-570.5"/>
<text text-anchor="middle" x="387.5" y="-577.5" font-family="Helvetica,sans-Serif" font-size="10.00">Controller::colorInteractions</text>
</a>
</g>
</g>
<!-- Node385&#45;&gt;Node386 -->
<g id="edge19" class="edge"><title>Node385&#45;&gt;Node386</title>
<path fill="none" stroke="midnightblue" d="M258.277,-551.589C281.112,-556.649 309.323,-562.9 333.465,-568.249"/>
<polygon fill="midnightblue" stroke="midnightblue" points="333.014,-571.734 343.535,-570.48 334.528,-564.899 333.014,-571.734"/>
</g>
<!-- Node387 -->
<g id="node18" class="node"><title>Node387</title>
<g id="a_node18"><a xlink:href="class_controller.html#a1b2394dad86c46445f6f2651f71ecb35" target="_top" xlink:title="Controller::addSynonyms">
<polygon fill="white" stroke="black" points="491,-570.5 491,-589.5 617,-589.5 617,-570.5 491,-570.5"/>
<text text-anchor="middle" x="554" y="-577.5" font-family="Helvetica,sans-Serif" font-size="10.00">Controller::addSynonyms</text>
</a>
</g>
</g>
<!-- Node386&#45;&gt;Node387 -->
<g id="edge20" class="edge"><title>Node386&#45;&gt;Node387</title>
<path fill="none" stroke="midnightblue" d="M455.408,-580C463.756,-580 472.322,-580 480.746,-580"/>
<polygon fill="midnightblue" stroke="midnightblue" points="480.927,-583.5 490.927,-580 480.927,-576.5 480.927,-583.5"/>
</g>
<!-- Node388 -->
<g id="node19" class="node"><title>Node388</title>
<g id="a_node19"><a xlink:href="class_synonym.html#a4dccfc549c3e1a7d97437a773693f57b" target="_top" xlink:title="Synonym::findSynonyms">
<polygon fill="white" stroke="black" points="665.5,-608.5 665.5,-627.5 790.5,-627.5 790.5,-608.5 665.5,-608.5"/>
<text text-anchor="middle" x="728" y="-615.5" font-family="Helvetica,sans-Serif" font-size="10.00">Synonym::findSynonyms</text>
</a>
</g>
</g>
<!-- Node387&#45;&gt;Node388 -->
<g id="edge21" class="edge"><title>Node387&#45;&gt;Node388</title>
<path fill="none" stroke="midnightblue" d="M598.403,-589.589C621.407,-594.671 649.851,-600.955 674.134,-606.32"/>
<polygon fill="midnightblue" stroke="midnightblue" points="673.39,-609.74 683.909,-608.48 674.9,-602.905 673.39,-609.74"/>
</g>
<!-- Node390 -->
<g id="node21" class="node"><title>Node390</title>
<g id="a_node21"><a xlink:href="class_controller.html#a5de982c1c102a1d45eb48efe0c8358c0" target="_top" xlink:title="Controller::highlightInteractions">
<polygon fill="white" stroke="black" points="653,-494.5 653,-513.5 803,-513.5 803,-494.5 653,-494.5"/>
<text text-anchor="middle" x="728" y="-501.5" font-family="Helvetica,sans-Serif" font-size="10.00">Controller::highlightInteractions</text>
</a>
</g>
</g>
<!-- Node387&#45;&gt;Node390 -->
<g id="edge23" class="edge"><title>Node387&#45;&gt;Node390</title>
<path fill="none" stroke="midnightblue" d="M576.784,-570.375C606.896,-557.069 661.413,-532.98 695.831,-517.772"/>
<polygon fill="midnightblue" stroke="midnightblue" points="697.661,-520.79 705.393,-513.547 694.831,-514.388 697.661,-520.79"/>
</g>
<!-- Node389 -->
<g id="node20" class="node"><title>Node389</title>
<g id="a_node20"><a xlink:href="class_synonym.html#a1cf040e4e5526070e16147fde014eacb" target="_top" xlink:title="Synonym::buildIdSymbolMap">
<polygon fill="white" stroke="black" points="839,-608.5 839,-627.5 982,-627.5 982,-608.5 839,-608.5"/>
<text text-anchor="middle" x="910.5" y="-615.5" font-family="Helvetica,sans-Serif" font-size="10.00">Synonym::buildIdSymbolMap</text>
</a>
</g>
</g>
<!-- Node388&#45;&gt;Node389 -->
<g id="edge22" class="edge"><title>Node388&#45;&gt;Node389</title>
<path fill="none" stroke="midnightblue" d="M790.613,-618C802.862,-618 815.896,-618 828.675,-618"/>
<polygon fill="midnightblue" stroke="midnightblue" points="828.85,-621.5 838.85,-618 828.85,-614.5 828.85,-621.5"/>
</g>
<!-- Node390&#45;&gt;Node372 -->
<g id="edge24" class="edge"><title>Node390&#45;&gt;Node372</title>
<path fill="none" stroke="midnightblue" d="M736.448,-513.675C758.971,-542.837 825.643,-628.41 839,-637 842.323,-639.137 845.883,-641.036 849.572,-642.722"/>
<polygon fill="midnightblue" stroke="midnightblue" points="848.362,-646.008 858.946,-646.491 850.973,-639.513 848.362,-646.008"/>
</g>
<!-- Node390&#45;&gt;Node373 -->
<g id="edge25" class="edge"><title>Node390&#45;&gt;Node373</title>
<path fill="none" stroke="midnightblue" d="M774.548,-513.589C798.796,-518.694 828.804,-525.011 854.361,-530.392"/>
<polygon fill="midnightblue" stroke="midnightblue" points="853.773,-533.845 864.28,-532.48 855.215,-526.995 853.773,-533.845"/>
</g>
<!-- Node390&#45;&gt;Node383 -->
<g id="edge26" class="edge"><title>Node390&#45;&gt;Node383</title>
<path fill="none" stroke="midnightblue" d="M769.129,-494.414C780.507,-490.799 792.615,-486.054 803,-480 821.752,-469.069 819.979,-457.455 839,-447 843.155,-444.716 847.602,-442.694 852.165,-440.905"/>
<polygon fill="midnightblue" stroke="midnightblue" points="853.38,-444.188 861.641,-437.555 851.046,-437.589 853.38,-444.188"/>
</g>
<!-- Node390&#45;&gt;Node391 -->
<g id="edge27" class="edge"><title>Node390&#45;&gt;Node391</title>
<path fill="none" stroke="midnightblue" d="M738.199,-494.317C767.039,-463.959 855.965,-370.353 893.023,-331.345"/>
<polygon fill="midnightblue" stroke="midnightblue" points="895.753,-333.552 900.103,-323.892 890.678,-328.731 895.753,-333.552"/>
</g>
<!-- Node392 -->
<g id="node23" class="node"><title>Node392</title>
<g id="a_node23"><a xlink:href="class_controller.html#a4324368a8739d02753a66a86d83f6c49" target="_top" xlink:title="Controller::drawTable">
<polygon fill="white" stroke="black" points="857,-456.5 857,-475.5 964,-475.5 964,-456.5 857,-456.5"/>
<text text-anchor="middle" x="910.5" y="-463.5" font-family="Helvetica,sans-Serif" font-size="10.00">Controller::drawTable</text>
</a>
</g>
</g>
<!-- Node390&#45;&gt;Node392 -->
<g id="edge32" class="edge"><title>Node390&#45;&gt;Node392</title>
<path fill="none" stroke="midnightblue" d="M774.548,-494.411C798.796,-489.306 828.804,-482.989 854.361,-477.608"/>
<polygon fill="midnightblue" stroke="midnightblue" points="855.215,-481.005 864.28,-475.52 853.773,-474.155 855.215,-481.005"/>
</g>
<!-- Node393 -->
<g id="node24" class="node"><title>Node393</title>
<g id="a_node24"><a xlink:href="class_controller.html#ad3e9409ace2b7cd9e687ca12fd0140d9" target="_top" xlink:title="Controller::drawGraph">
<polygon fill="white" stroke="black" points="855.5,-494.5 855.5,-513.5 965.5,-513.5 965.5,-494.5 855.5,-494.5"/>
<text text-anchor="middle" x="910.5" y="-501.5" font-family="Helvetica,sans-Serif" font-size="10.00">Controller::drawGraph</text>
</a>
</g>
</g>
<!-- Node390&#45;&gt;Node393 -->
<g id="edge34" class="edge"><title>Node390&#45;&gt;Node393</title>
<path fill="none" stroke="midnightblue" d="M803.198,-504C817.145,-504 831.62,-504 845.234,-504"/>
<polygon fill="midnightblue" stroke="midnightblue" points="845.453,-507.5 855.453,-504 845.453,-500.5 845.453,-507.5"/>
</g>
<!-- Node391&#45;&gt;Node376 -->
<g id="edge31" class="edge"><title>Node391&#45;&gt;Node376</title>
<path fill="none" stroke="midnightblue" d="M977.594,-306.925C990.194,-305.576 1003.45,-304.158 1016.24,-302.788"/>
<polygon fill="midnightblue" stroke="midnightblue" points="1016.81,-306.247 1026.38,-301.703 1016.07,-299.287 1016.81,-306.247"/>
</g>
<!-- Node391&#45;&gt;Node377 -->
<g id="edge28" class="edge"><title>Node391&#45;&gt;Node377</title>
<path fill="none" stroke="midnightblue" d="M956.291,-323.589C980.03,-328.671 1009.38,-334.955 1034.44,-340.32"/>
<polygon fill="midnightblue" stroke="midnightblue" points="1034.02,-343.809 1044.53,-342.48 1035.49,-336.964 1034.02,-343.809"/>
</g>
<!-- Node391&#45;&gt;Node378 -->
<g id="edge29" class="edge"><title>Node391&#45;&gt;Node378</title>
<path fill="none" stroke="midnightblue" d="M948.994,-323.582C960.045,-327.234 971.879,-332.001 982,-338 1000.67,-349.067 998.97,-360.561 1018,-371 1022.18,-373.296 1026.66,-375.326 1031.26,-377.119"/>
<polygon fill="midnightblue" stroke="midnightblue" points="1030.21,-380.46 1040.8,-380.478 1032.53,-373.857 1030.21,-380.46"/>
</g>
<!-- Node391&#45;&gt;Node382 -->
<g id="edge30" class="edge"><title>Node391&#45;&gt;Node382</title>
<path fill="none" stroke="midnightblue" d="M936.697,-304.357C958.155,-296.302 989.887,-284.761 1018,-276 1025.45,-273.678 1033.4,-271.38 1041.17,-269.229"/>
<polygon fill="midnightblue" stroke="midnightblue" points="1042.15,-272.59 1050.88,-266.59 1040.32,-265.835 1042.15,-272.59"/>
</g>
<!-- Node392&#45;&gt;Node377 -->
<g id="edge33" class="edge"><title>Node392&#45;&gt;Node377</title>
<path fill="none" stroke="midnightblue" d="M964.099,-457.376C970.572,-454.77 976.746,-451.388 982,-447 1010.69,-423.041 989.292,-394.933 1018,-371 1020.02,-369.32 1022.16,-367.787 1024.41,-366.389"/>
<polygon fill="midnightblue" stroke="midnightblue" points="1026.27,-369.368 1033.51,-361.635 1023.03,-363.164 1026.27,-369.368"/>
</g>
<!-- Node393&#45;&gt;Node378 -->
<g id="edge35" class="edge"><title>Node393&#45;&gt;Node378</title>
<path fill="none" stroke="midnightblue" d="M958.935,-494.468C966.883,-491.965 974.86,-488.851 982,-485 1019.64,-464.699 1055.04,-428.742 1074.2,-407.366"/>
<polygon fill="midnightblue" stroke="midnightblue" points="1076.96,-409.518 1080.93,-399.694 1071.7,-404.899 1076.96,-409.518"/>
</g>
<!-- Node394 -->
<g id="node25" class="node"><title>Node394</title>
<g id="a_node25"><a xlink:href="class_controller.html#ac48a01ce37f1bbf26cc887f44f58d33d" target="_top" xlink:title="Controller::showGraph">
<polygon fill="white" stroke="black" points="1033.5,-513.5 1033.5,-532.5 1146.5,-532.5 1146.5,-513.5 1033.5,-513.5"/>
<text text-anchor="middle" x="1090" y="-520.5" font-family="Helvetica,sans-Serif" font-size="10.00">Controller::showGraph</text>
</a>
</g>
</g>
<!-- Node393&#45;&gt;Node394 -->
<g id="edge36" class="edge"><title>Node393&#45;&gt;Node394</title>
<path fill="none" stroke="midnightblue" d="M965.72,-509.804C983.869,-511.746 1004.3,-513.933 1023.23,-515.96"/>
<polygon fill="midnightblue" stroke="midnightblue" points="1022.96,-519.45 1033.27,-517.035 1023.7,-512.49 1022.96,-519.45"/>
</g>
<!-- Node395 -->
<g id="node26" class="node"><title>Node395</title>
<g id="a_node26"><a xlink:href="class_controller.html#af36dc0f546549bde9b2fecae69c5f637" target="_top" xlink:title="Controller::showGraphLegend">
<polygon fill="white" stroke="black" points="1018,-475.5 1018,-494.5 1162,-494.5 1162,-475.5 1018,-475.5"/>
<text text-anchor="middle" x="1090" y="-482.5" font-family="Helvetica,sans-Serif" font-size="10.00">Controller::showGraphLegend</text>
</a>
</g>
</g>
<!-- Node393&#45;&gt;Node395 -->
<g id="edge37" class="edge"><title>Node393&#45;&gt;Node395</title>
<path fill="none" stroke="midnightblue" d="M965.72,-498.196C978.929,-496.782 993.346,-495.239 1007.51,-493.722"/>
<polygon fill="midnightblue" stroke="midnightblue" points="1008.2,-497.17 1017.77,-492.625 1007.45,-490.209 1008.2,-497.17"/>
</g>
</g>
</svg>
