<?xml version="1.0" encoding="UTF-8" standalone="no"?>
<!DOCTYPE svg PUBLIC "-//W3C//DTD SVG 1.1//EN"
 "http://www.w3.org/Graphics/SVG/1.1/DTD/svg11.dtd">
<!-- Generated by graphviz version 2.38.0 (20140413.2041)
 -->
<!-- Title: Controller::highlightInteractions Pages: 1 -->
<svg width="1030pt" height="230pt"
 viewBox="0.00 0.00 1030.00 230.00" xmlns="http://www.w3.org/2000/svg" xmlns:xlink="http://www.w3.org/1999/xlink">
<g id="graph0" class="graph" transform="scale(1 1) rotate(0) translate(4 226)">
<title>Controller::highlightInteractions</title>
<polygon fill="white" stroke="none" points="-4,4 -4,-226 1026,-226 1026,4 -4,4"/>
<!-- Node116 -->
<g id="node1" class="node"><title>Node116</title>
<polygon fill="#bfbfbf" stroke="black" points="0,-161.5 0,-180.5 150,-180.5 150,-161.5 0,-161.5"/>
<text text-anchor="middle" x="75" y="-168.5" font-family="Helvetica,sans-Serif" font-size="10.00">Controller::highlightInteractions</text>
</g>
<!-- Node117 -->
<g id="node2" class="node"><title>Node117</title>
<g id="a_node2"><a xlink:href="class_controller.html#a57056e643c505ff9e79d7691240ab343" target="_top" xlink:title="Controller::onHighlightKeyup">
<polygon fill="white" stroke="black" points="186,-180.5 186,-199.5 326,-199.5 326,-180.5 186,-180.5"/>
<text text-anchor="middle" x="256" y="-187.5" font-family="Helvetica,sans-Serif" font-size="10.00">Controller::onHighlightKeyup</text>
</a>
</g>
</g>
<!-- Node116&#45;&gt;Node117 -->
<g id="edge1" class="edge"><title>Node116&#45;&gt;Node117</title>
<path fill="none" stroke="midnightblue" d="M160.149,-179.932C168.752,-180.845 177.422,-181.765 185.838,-182.659"/>
<polygon fill="midnightblue" stroke="midnightblue" points="160.412,-176.44 150.098,-178.865 159.673,-183.401 160.412,-176.44"/>
</g>
<!-- Node118 -->
<g id="node3" class="node"><title>Node118</title>
<g id="a_node3"><a xlink:href="class_controller.html#a1b2394dad86c46445f6f2651f71ecb35" target="_top" xlink:title="Controller::addSynonyms">
<polygon fill="white" stroke="black" points="193,-142.5 193,-161.5 319,-161.5 319,-142.5 193,-142.5"/>
<text text-anchor="middle" x="256" y="-149.5" font-family="Helvetica,sans-Serif" font-size="10.00">Controller::addSynonyms</text>
</a>
</g>
</g>
<!-- Node116&#45;&gt;Node118 -->
<g id="edge2" class="edge"><title>Node116&#45;&gt;Node118</title>
<path fill="none" stroke="midnightblue" d="M160.176,-162.065C171.204,-160.895 182.339,-159.713 192.911,-158.59"/>
<polygon fill="midnightblue" stroke="midnightblue" points="159.673,-158.599 150.098,-163.135 160.412,-165.56 159.673,-158.599"/>
</g>
<!-- Node119 -->
<g id="node4" class="node"><title>Node119</title>
<g id="a_node4"><a xlink:href="class_controller.html#aa033c0428eb72a0332422fbb1cf3a9c8" target="_top" xlink:title="Controller::colorInteractions">
<polygon fill="white" stroke="black" points="362,-142.5 362,-161.5 497,-161.5 497,-142.5 362,-142.5"/>
<text text-anchor="middle" x="429.5" y="-149.5" font-family="Helvetica,sans-Serif" font-size="10.00">Controller::colorInteractions</text>
</a>
</g>
</g>
<!-- Node118&#45;&gt;Node119 -->
<g id="edge3" class="edge"><title>Node118&#45;&gt;Node119</title>
<path fill="none" stroke="midnightblue" d="M329.552,-152C340.253,-152 351.235,-152 361.81,-152"/>
<polygon fill="midnightblue" stroke="midnightblue" points="329.401,-148.5 319.401,-152 329.401,-155.5 329.401,-148.5"/>
</g>
<!-- Node120 -->
<g id="node5" class="node"><title>Node120</title>
<g id="a_node5"><a xlink:href="class_controller.html#ae936d1f71459d7e96ade47f99cba8998" target="_top" xlink:title="Searchs for DGD Interactions. ">
<polygon fill="white" stroke="black" points="533,-142.5 533,-161.5 665,-161.5 665,-142.5 533,-142.5"/>
<text text-anchor="middle" x="599" y="-149.5" font-family="Helvetica,sans-Serif" font-size="10.00">Controller::filterInteractions</text>
</a>
</g>
</g>
<!-- Node119&#45;&gt;Node120 -->
<g id="edge4" class="edge"><title>Node119&#45;&gt;Node120</title>
<path fill="none" stroke="midnightblue" d="M507.201,-152C515.794,-152 524.486,-152 532.913,-152"/>
<polygon fill="midnightblue" stroke="midnightblue" points="507.182,-148.5 497.182,-152 507.182,-155.5 507.182,-148.5"/>
</g>
<!-- Node121 -->
<g id="node6" class="node"><title>Node121</title>
<g id="a_node6"><a xlink:href="class_controller.html#a8d32c2805976eab2365d4d0c245e9084" target="_top" xlink:title="Controller::onAddFilter">
<polygon fill="white" stroke="black" points="710,-180.5 710,-199.5 823,-199.5 823,-180.5 710,-180.5"/>
<text text-anchor="middle" x="766.5" y="-187.5" font-family="Helvetica,sans-Serif" font-size="10.00">Controller::onAddFilter</text>
</a>
</g>
</g>
<!-- Node120&#45;&gt;Node121 -->
<g id="edge5" class="edge"><title>Node120&#45;&gt;Node121</title>
<path fill="none" stroke="midnightblue" d="M651.811,-163.896C675.073,-169.237 702.147,-175.454 724.038,-180.48"/>
<polygon fill="midnightblue" stroke="midnightblue" points="652.292,-160.416 641.763,-161.589 650.726,-167.238 652.292,-160.416"/>
</g>
<!-- Node122 -->
<g id="node7" class="node"><title>Node122</title>
<g id="a_node7"><a xlink:href="class_controller.html#a60e76adc877708fd86b13da2664a6fcc" target="_top" xlink:title="Controller::onRemoveFilter">
<polygon fill="white" stroke="black" points="701,-142.5 701,-161.5 832,-161.5 832,-142.5 701,-142.5"/>
<text text-anchor="middle" x="766.5" y="-149.5" font-family="Helvetica,sans-Serif" font-size="10.00">Controller::onRemoveFilter</text>
</a>
</g>
</g>
<!-- Node120&#45;&gt;Node122 -->
<g id="edge6" class="edge"><title>Node120&#45;&gt;Node122</title>
<path fill="none" stroke="midnightblue" d="M675.614,-152C684.04,-152 692.564,-152 700.836,-152"/>
<polygon fill="midnightblue" stroke="midnightblue" points="675.41,-148.5 665.41,-152 675.41,-155.5 675.41,-148.5"/>
</g>
<!-- Node123 -->
<g id="node8" class="node"><title>Node123</title>
<g id="a_node8"><a xlink:href="class_controller.html#a00ed132beeba5a2d5141eb5eeef44635" target="_top" xlink:title="Searchs for DGD Interactions. ">
<polygon fill="white" stroke="black" points="712.5,-104.5 712.5,-123.5 820.5,-123.5 820.5,-104.5 712.5,-104.5"/>
<text text-anchor="middle" x="766.5" y="-111.5" font-family="Helvetica,sans-Serif" font-size="10.00">Controller::runSearch</text>
</a>
</g>
</g>
<!-- Node120&#45;&gt;Node123 -->
<g id="edge7" class="edge"><title>Node120&#45;&gt;Node123</title>
<path fill="none" stroke="midnightblue" d="M651.811,-140.104C675.073,-134.763 702.147,-128.546 724.038,-123.52"/>
<polygon fill="midnightblue" stroke="midnightblue" points="650.726,-136.762 641.763,-142.411 652.292,-143.584 650.726,-136.762"/>
</g>
<!-- Node124 -->
<g id="node9" class="node"><title>Node124</title>
<g id="a_node9"><a xlink:href="class_controller.html#a0103c76dd948ca48ba4bc7e85c1b5b14" target="_top" xlink:title="Controller::onSelectSearchType">
<polygon fill="white" stroke="black" points="868,-202.5 868,-221.5 1022,-221.5 1022,-202.5 868,-202.5"/>
<text text-anchor="middle" x="945" y="-209.5" font-family="Helvetica,sans-Serif" font-size="10.00">Controller::onSelectSearchType</text>
</a>
</g>
</g>
<!-- Node123&#45;&gt;Node124 -->
<g id="edge8" class="edge"><title>Node123&#45;&gt;Node124</title>
<path fill="none" stroke="midnightblue" d="M824.539,-128.075C827.157,-129.556 829.663,-131.192 832,-133 856.598,-152.028 843.013,-174.486 868,-193 873.245,-196.886 879.196,-199.983 885.402,-202.45"/>
<polygon fill="midnightblue" stroke="midnightblue" points="825.816,-124.805 815.288,-123.616 822.776,-131.111 825.816,-124.805"/>
</g>
<!-- Node125 -->
<g id="node10" class="node"><title>Node125</title>
<g id="a_node10"><a xlink:href="class_controller.html#a6fdc2dc344d653502525950963783edb" target="_top" xlink:title="Controller::onAddDGD">
<polygon fill="white" stroke="black" points="888.5,-164.5 888.5,-183.5 1001.5,-183.5 1001.5,-164.5 888.5,-164.5"/>
<text text-anchor="middle" x="945" y="-171.5" font-family="Helvetica,sans-Serif" font-size="10.00">Controller::onAddDGD</text>
</a>
</g>
</g>
<!-- Node123&#45;&gt;Node125 -->
<g id="edge9" class="edge"><title>Node123&#45;&gt;Node125</title>
<path fill="none" stroke="midnightblue" d="M815.861,-126.732C821.381,-128.629 826.865,-130.722 832,-133 849.14,-140.603 850.706,-147.754 868,-155 876.906,-158.732 886.718,-161.855 896.248,-164.42"/>
<polygon fill="midnightblue" stroke="midnightblue" points="816.545,-123.275 805.953,-123.531 814.393,-129.936 816.545,-123.275"/>
</g>
<!-- Node126 -->
<g id="node11" class="node"><title>Node126</title>
<g id="a_node11"><a xlink:href="class_controller.html#a232a421db4465db78f2ffae928077d7b" target="_top" xlink:title="Controller::onRemoveDGD">
<polygon fill="white" stroke="black" points="880,-126.5 880,-145.5 1010,-145.5 1010,-126.5 880,-126.5"/>
<text text-anchor="middle" x="945" y="-133.5" font-family="Helvetica,sans-Serif" font-size="10.00">Controller::onRemoveDGD</text>
</a>
</g>
</g>
<!-- Node123&#45;&gt;Node126 -->
<g id="edge10" class="edge"><title>Node123&#45;&gt;Node126</title>
<path fill="none" stroke="midnightblue" d="M831.157,-121.935C847.001,-123.909 863.994,-126.028 879.861,-128.005"/>
<polygon fill="midnightblue" stroke="midnightblue" points="831.291,-118.424 820.935,-120.66 830.425,-125.371 831.291,-118.424"/>
</g>
<!-- Node127 -->
<g id="node12" class="node"><title>Node127</title>
<g id="a_node12"><a xlink:href="class_controller.html#a6ecdc90ba5998f61bc9c6570b639a410" target="_top" xlink:title="Controller::onProbability\lSliderChange">
<polygon fill="white" stroke="black" points="885,-77 885,-107 1005,-107 1005,-77 885,-77"/>
<text text-anchor="start" x="893" y="-95" font-family="Helvetica,sans-Serif" font-size="10.00">Controller::onProbability</text>
<text text-anchor="middle" x="945" y="-84" font-family="Helvetica,sans-Serif" font-size="10.00">SliderChange</text>
</a>
</g>
</g>
<!-- Node123&#45;&gt;Node127 -->
<g id="edge11" class="edge"><title>Node123&#45;&gt;Node127</title>
<path fill="none" stroke="midnightblue" d="M831.083,-106.075C848.636,-103.887 867.605,-101.522 884.893,-99.3674"/>
<polygon fill="midnightblue" stroke="midnightblue" points="830.425,-102.629 820.935,-107.34 831.291,-109.576 830.425,-102.629"/>
</g>
<!-- Node128 -->
<g id="node13" class="node"><title>Node128</title>
<g id="a_node13"><a xlink:href="class_controller.html#a7fce65bf95f281aec852f0b5f95f7f4d" target="_top" xlink:title="Controller::onNodeGraphClick">
<polygon fill="white" stroke="black" points="872.5,-38.5 872.5,-57.5 1017.5,-57.5 1017.5,-38.5 872.5,-38.5"/>
<text text-anchor="middle" x="945" y="-45.5" font-family="Helvetica,sans-Serif" font-size="10.00">Controller::onNodeGraphClick</text>
</a>
</g>
</g>
<!-- Node123&#45;&gt;Node128 -->
<g id="edge12" class="edge"><title>Node123&#45;&gt;Node128</title>
<path fill="none" stroke="midnightblue" d="M795.089,-99.811C814.987,-89.9661 842.689,-77.0471 868,-68 879.049,-64.0507 891.251,-60.4977 902.585,-57.5205"/>
<polygon fill="midnightblue" stroke="midnightblue" points="793.367,-96.7591 785.992,-104.367 796.501,-103.018 793.367,-96.7591"/>
</g>
<!-- Node129 -->
<g id="node14" class="node"><title>Node129</title>
<g id="a_node14"><a xlink:href="class_controller.html#a16f2f4b8eaa56c1f99251324b371fb38" target="_top" xlink:title="Controller::onBackClick">
<polygon fill="white" stroke="black" points="885.5,-0.5 885.5,-19.5 1004.5,-19.5 1004.5,-0.5 885.5,-0.5"/>
<text text-anchor="middle" x="945" y="-7.5" font-family="Helvetica,sans-Serif" font-size="10.00">Controller::onBackClick</text>
</a>
</g>
</g>
<!-- Node123&#45;&gt;Node129 -->
<g id="edge13" class="edge"><title>Node123&#45;&gt;Node129</title>
<path fill="none" stroke="midnightblue" d="M782.85,-96.9793C801.229,-77.6422 833.833,-46.5065 868,-29 875.505,-25.1548 883.832,-22.0576 892.143,-19.5718"/>
<polygon fill="midnightblue" stroke="midnightblue" points="780.13,-94.7645 775.882,-104.47 785.256,-99.5323 780.13,-94.7645"/>
</g>
</g>
</svg>
