<?xml version="1.0" encoding="utf-8"?>
<!-- Generator: Adobe Illustrator 16.0.0, SVG Export Plug-In . SVG Version: 6.00 Build 0)  -->
<!DOCTYPE svg PUBLIC "-//W3C//DTD SVG 1.1//EN" "http://www.w3.org/Graphics/SVG/1.1/DTD/svg11.dtd">
<svg version="1.1" id="Layer_1" xmlns="http://www.w3.org/2000/svg" xmlns:xlink="http://www.w3.org/1999/xlink" x="0px" y="0px"
	 width="320.255px" height="396.07px" viewBox="0 0 320.255 396.07" enable-background="new 0 0 320.255 396.07"
	 xml:space="preserve">
<g>
	<path fill-rule="evenodd" clip-rule="evenodd" d="M100.954,122.53c0.657-3.626,1.313-7.252,2.111-11.654
		c0.606,1.311,1.423,2.204,1.309,2.957c-2.169,14.295,5.587,24.818,13.243,35.428c7.01,9.715,13.837,19.563,20.927,29.218
		c1.035,1.408,3.082,2.073,4.661,3.082c0.324-2.004,1.477-4.339,0.833-5.958c-3.261-8.192-6.135-16.73-10.752-24.147
		c-7.064-11.35-10.872-23.642-13.855-36.401c-1.928-8.248-3.799-16.523-6.191-24.641c-0.618-2.099-2.918-3.864-4.758-5.411
		c-7.498-6.305-15.103-12.481-22.695-18.673c-4.802-3.916-4.993-9.833-5.064-14.928c-0.152-10.849,0.705-21.75,1.816-32.561
		c0.574-5.585,4.343-6.681,8.429-2.731c2.929,2.83,5.087,6.44,7.757,9.559c7.934,9.269,16.5,18.368,18.681,30.829
		c1.392,7.953,0.541,16.273,1.324,24.367c0.561,5.79,1.931,11.538,3.354,17.2c2.658,10.573,4.952,21.313,8.671,31.521
		c2.771,7.605,7.333,14.608,11.492,21.646c4.412,7.464,8.964,14.892,14.087,21.871c3.09,4.209,5.466,3.992,7.792-0.719
		c3.888-7.875,6.994-16.141,10.283-24.301c1.101-2.729,1.832-5.619,2.6-8.471c1.52-5.651,1.961-10.878-1.303-16.563
		c-3.023-5.266-4.049-11.646-6.342-17.381c-0.613-1.534-2.46-3.157-4.061-3.612c-5.783-1.643-11.777-2.547-17.548-4.221
		c-6.027-1.749-7.958-4.888-8.34-11.161c-0.359-5.911-0.95-11.811-1.567-17.702c-0.34-3.246,1.007-3.648,3.401-2.17
		c5.965,3.684,11.98,7.305,17.764,11.26c9.638,6.59,11.872,17.147,14.497,27.556c1.73,6.859,4.108,13.555,6.196,20.324
		c0.664,0.048,1.328,0.097,1.991,0.146c2.586-8.597,4.729-17.358,7.861-25.75c4.484-12.013,2.325-24.745,4.854-36.932
		c2.562-12.339,7.769-23.159,16.999-31.983c2.572-2.457,4.262-5.814,6.676-8.469c1.221-1.343,3.141-2.75,4.771-2.782
		c1.14-0.022,3.002,2.059,3.381,3.505c2.895,11.031,6.452,22.012,7.933,33.255c1.45,11.016-5.103,19.028-14.163,24.72
		c-4.984,3.131-10.031,6.369-15.459,8.535c-7.566,3.021-8.566,9.413-10.142,15.992c-5.507,22.992-11.171,45.947-16.921,68.88
		c-1.068,4.258-2.729,8.377-4.264,12.505c-2.855,7.674-3.122,14.524,6.299,18.788c0.803-1.047,2.094-2.432,3.039-4.022
		c4.338-7.297,8.707-14.58,12.817-22.007c3.547-6.409,7.114-12.854,9.957-19.585c1.272-3.013,1.41-6.838,1.005-10.165
		c-1.621-13.332-3.664-26.611-5.527-39.914c-0.201-1.43-0.248-2.88-0.365-4.321c0.488-0.269,0.976-0.537,1.463-0.806
		c0.848,1.262,2.223,2.433,2.457,3.8c1.502,8.729,2.551,17.537,4.188,26.236c0.622,3.305,2.407,6.391,3.662,9.576
		c0.809,0.069,1.616,0.139,2.425,0.208c2.452-4.829,5.013-9.607,7.335-14.498c4.98-10.486,9.775-21.061,14.807-31.522
		c0.9-1.873,2.566-3.378,3.879-5.053c0.634,0.334,1.268,0.668,1.902,1.002c-0.49,2.146-0.547,4.518-1.536,6.4
		c-12.355,23.521-21.366,48.452-30.96,73.135c-2.057,5.295-3.648,10.77-5.845,17.327c2.179-0.677,4.03-0.72,5.065-1.661
		c6.446-5.872,12.899-11.761,18.98-18.005c5.773-5.929,10.564-12.905,16.754-18.313c6.887-6.018,6.637-12.861,4.817-20.401
		c-3.101-12.853-1.01-24.604,6.396-35.652c4.436-6.616,11.475-8.521,18.105-10.987c6.382-2.375,13.17-3.65,19.758-5.486
		c3.674-1.024,5.085,0.575,5.369,4.068c0.815,10.023-1.338,19.689-3.627,29.295c-2.087,8.757-8.476,14.338-15.824,18.564
		c-6.477,3.725-13.481,6.53-20.225,9.8c-1.155,0.56-2.49,1.178-3.2,2.16c-15.243,21.092-30.433,42.225-45.558,63.4
		c-1.516,2.121-2.747,4.497-3.789,6.894c-1.558,3.584,0.006,5.811,3.637,5.03c10.703-2.297,20.576-5.531,27.211-15.672
		c4.204-6.426,9.779-12.486,16.03-16.873c5.057-3.548,11.919-4.952,18.199-6.221c7.992-1.613,16.21-2.099,24.321-3.142
		c2.617-0.336,5.205-0.895,7.807-1.352c0.021,3.024,0.271,6.067,0.02,9.068c-0.756,8.991-5.338,16.524-10.244,23.63
		c-5.361,7.763-14.215,9.117-22.866,10.722c-10.642,1.974-20.905,0.253-31.226-1.942c-1.17-0.249-2.649,0.119-3.78,0.644
		c-13.202,6.119-22.823,16.048-30.978,27.958c-8.832,12.9-12.392,27.021-11.797,42.31c0.154,3.946,1.915,7.829,2.959,11.822
		c-17.283,0-34.75,0-52.884,0c8.804-12.303,5.341-26.143,5.572-39.393c0.073-4.165-2.292-8.425-3.78-12.556
		c-3.927-10.905-7.179-22.044-13.813-31.872c-2.684-3.976-5.6-6.357-10.133-7.498c-7.568-1.904-15.032-4.216-22.555-6.303
		c-7.13-1.979-12.239,1.896-17.283,6.021c-6.69,5.469-14.006,9.766-22.813,10.519c-7.293,0.623-14.555,0.208-20.653-4.547
		c-7.012-5.468-13.957-11.037-20.672-16.861c-1.531-1.328-2.001-3.88-2.96-5.869c1.898-0.833,3.725-2.103,5.706-2.425
		c9.378-1.526,18.895-2.328,28.177-4.271c11.37-2.382,21.823,0.162,32.184,4.249c4.22,1.664,8.222,4.196,12.581,5.125
		c8.151,1.737,16.481,2.651,24.754,3.783c3.506,0.479,4.633-1.345,4.163-4.702c-1.338-9.567-7.677-16.436-12.948-23.821
		c-1.078-1.51-3.804-1.744-5.564-2.884c-4.55-2.944-9.339-5.662-13.386-9.209c-6.655-5.831-15.283-6.271-22.918-9.37
		c-7.52-3.053-15.569-4.462-22.394-9.623c-8.406-6.357-12.605-14.408-13.484-24.61c-0.42-4.876-0.998-9.737-1.502-14.608
		c0.221-0.25,0.42-0.695,0.66-0.719c14.984-1.433,29.599-1.23,42.447,8.424c5.96,4.479,8.604,11.064,11.185,17.443
		c1.979,4.891,2.554,10.45,3.142,15.78c1.087,9.857,3.301,13.213,14.767,11.495c-0.718-9.676-3.019-18.578-8.573-26.986
		c-8.474-12.827-16.039-26.276-23.547-39.709c-3.498-6.258-8.987-7.934-15.249-8.878c-3.717-0.561-7.401-1.549-11.132-1.757
		c-8.604-0.479-14.228-6.31-20.34-11.11c-1.852-1.453-3.532-4.297-3.653-6.59c-0.673-12.754-0.874-25.534-1.156-38.307
		c-0.054-2.438,0.827-4.103,3.623-2.397c1.783,1.088,3.984,1.978,5.105,3.58c5.067,7.249,12.193,11.905,19.525,16.388
		c9.168,5.605,15.854,13.612,17.869,24.006c3.273,16.887,12.976,30.039,22.581,43.425c4.178,5.822,8.317,11.673,12.474,17.511
		C100.091,122.623,100.522,122.577,100.954,122.53z"/>
	<path fill-rule="evenodd" clip-rule="evenodd" d="M78.221,326.377c-2.865,6.517-5.776,13.014-8.587,19.553
		c-6.58,15.308-13.088,30.646-19.708,45.935c-0.501,1.159-1.66,2.033-2.513,3.039c-1.008-1.032-2.446-1.887-2.96-3.125
		c-8.52-20.519-16.916-41.089-25.374-61.634c-0.476-1.154-1.245-2.189-2.629-4.576c0,7.414,0,13.445,0,19.478
		c0,11.499,0.289,23.007-0.106,34.491c-0.245,7.104,1.49,12.305,8.96,14.834c-7.512,0-15.023,0-23.875,0
		c2.092-1.022,3.089-1.539,4.111-2.003c3.827-1.738,5.907-4.629,5.908-8.897c0.003-19.663-0.049-39.327,0.027-58.99
		c0.028-7.332-5.503-7.988-11.474-9.148c1.098-0.744,1.533-1.296,1.973-1.299c8.998-0.07,18-0.227,26.988,0.066
		c1.303,0.042,3.087,2.063,3.711,3.56c6.734,16.129,13.276,32.338,19.892,48.516c0.307,0.751,0.821,1.416,1.595,2.722
		c5.21-12.03,10.253-23.66,15.285-35.295c2.531-5.854,4.992-11.739,7.611-17.553c0.388-0.861,1.467-1.998,2.241-2.01
		c9.564-0.137,19.13-0.09,28.946,1.049c-1.356,0.607-2.671,1.338-4.076,1.799c-3.788,1.244-5.645,4.048-5.665,7.768
		c-0.105,20.163-0.295,40.333,0.249,60.482c0.071,2.62,4.123,5.212,6.512,7.639c0.611,0.621,1.914,0.562,2.782,1.709
		c-12.756,0-25.512,0-38.282,0c0.025-0.431-0.017-0.988,0.07-1.009c7.865-1.89,9.8-7.361,9.695-14.748
		c-0.246-17.322-0.079-34.65-0.079-51.976C79.04,326.627,78.63,326.502,78.221,326.377z"/>
	<path fill-rule="evenodd" clip-rule="evenodd" d="M260.447,349.741c9.539,0,18.472,0,27.969,0c0-8.61,0.438-17.078-0.185-25.467
		c-0.313-4.21-2.589-8.219-8.029-8.401c-1.131-0.038-2.252-0.36-3.377-0.553c0.625-0.71,1.249-1.421,1.873-2.132
		c12.422,0,24.844,0,38.838,0c-1.74,1.434-2.443,2.446-3.35,2.687c-4.644,1.225-6.791,4.047-6.771,8.904
		c0.083,19.321,0.023,38.644,0.042,57.966c0.004,4.944,1.496,8.772,7.266,9.232c1.147,0.092,2.282,0.341,3.423,0.517
		c-0.65,0.73-1.301,1.46-1.95,2.189c-12.437,0-24.873,0-38.658,0c1.608-1.348,2.343-2.474,3.258-2.647
		c5.34-1.013,7.398-4.809,7.564-9.52c0.303-8.629,0.086-17.276,0.086-26.25c-9.34,0-18.388,0-27.98,0
		c0,9.678-0.41,19.314,0.289,28.869c0.176,2.392,3.871,4.575,6.059,6.742c0.781,0.774,1.889,1.218,2.359,2.827
		c-12.443,0-24.886,0-38.744,0c1.721-1.387,2.46-2.389,3.42-2.691c5.837-1.842,7.585-4.037,7.594-10.203
		c0.023-18.322,0.012-36.646,0.006-54.968c-0.003-6.8-1.455-8.692-8.305-11.054c-0.765-0.264-1.442-0.78-2.16-1.18
		c0.203-0.386,0.407-0.771,0.611-1.156c12.446,0,24.894,0,38.293,0c-0.912,1.038-1.452,2.26-2.174,2.379
		c-5.482,0.906-7.31,4.406-7.279,9.497C260.482,333.3,260.447,341.271,260.447,349.741z"/>
	<path fill-rule="evenodd" clip-rule="evenodd" d="M222.245,310.784c0,8.938,0,17.386,0,27.36c-1.782-1.979-3.151-2.86-3.566-4.068
		c-2.252-6.557-6.162-11.806-11.605-16.041c-5.759-4.48-16.939-4.116-21.906,0.622c-5.311,5.065-4.93,11.93-0.167,16.022
		c4.091,3.516,9.43,5.579,14.222,8.275c6.656,3.746,14.029,6.631,19.799,11.439c7.379,6.148,9.406,14.938,5.969,24.221
		c-3.51,9.479-10.807,14.273-20.565,16.431c-8.94,1.978-17.292,0.028-25.681-2.26c-3.875-1.057-7.346-2.144-9.104,2.928
		c-0.061,0.177-0.914,0.079-1.797,0.135c0-9.604,0-19.12,0-28.636c0.422-0.224,0.843-0.447,1.264-0.67
		c0.783,1.524,1.861,2.969,2.301,4.587c3.084,11.346,13.863,22.052,26.265,20.885c10.56-0.994,16.249-8.605,13.661-16.418
		c-0.705-2.132-2.33-4.52-4.215-5.602c-7.482-4.292-15.299-7.996-22.871-12.14c-9.842-5.386-16.527-12.705-15.882-25.027
		c0.564-10.775,10.761-21.962,21.543-21.735c6.786,0.143,13.603,1.563,20.285,2.974c3.939,0.832,7.427,2.066,9.603-2.71
		C219.954,311.009,220.983,311.058,222.245,310.784z"/>
	<path fill-rule="evenodd" clip-rule="evenodd" d="M307.348,20.229c-0.308,3.738-0.283,7.541-0.99,11.202
		c-1.578,8.17-3.216,16.353-5.397,24.376c-2.372,8.725-7.693,14.431-17.407,15.245c-7.986,0.669-15.903,2.243-23.893,2.743
		c-4.533,0.284-9.149-0.784-14.508-1.321c6.043-14.155,11.644-27.751,27.938-33.838c9.012-3.365,17.023-9.421,25.447-14.331
		c2.489-1.451,4.846-3.129,7.264-4.704C306.317,19.81,306.833,20.019,307.348,20.229z"/>
	<path fill-rule="evenodd" clip-rule="evenodd" d="M155.889,364.93c-8.854,0-17.793-0.009-26.733,0.003
		c-6.223,0.008-6.359,0.058-4.707,6.094c0.935,3.415,1.766,7.134,3.748,9.936c6.372,9.005,12.743,8.198,22.823,1.826
		c0.943-0.597,1.556-1.717,2.586-2.896c1.015,0.907,1.793,1.603,2.542,2.272c-6.598,13.116-23.937,17.442-35.627,10.878
		c-6.393-3.59-10.283-8.679-12.321-15.675c-3.65-12.53-1.687-23.672,7.506-33.139c6.215-6.401,18.037-9.23,26.287-5.103
		C152.012,344.138,157.29,353.529,155.889,364.93z M122.229,359.548c7.333,0,13.198,0,19.604,0
		c-0.511-4.511-0.421-8.757-1.64-12.585c-0.73-2.292-3.206-4.757-5.468-5.588c-1.665-0.611-5.433,0.687-6.218,2.197
		C125.978,348.441,124.394,353.802,122.229,359.548z"/>
	<path fill-rule="evenodd" clip-rule="evenodd" d="M144.449,0.342c12.357-1.744,19.442,3.354,25.496,11.379
		c5.959,7.9,11.292,15.946,12.938,25.922c0.187,1.126,0.508,2.246,0.543,3.377c0.175,5.474-1.793,7.455-6.742,5.485
		c-8.263-3.287-16.331-7.136-24.238-11.219c-5.732-2.961-8.031-8.307-8.004-14.689C144.471,13.854,144.449,7.111,144.449,0.342z"/>
	<path fill-rule="evenodd" clip-rule="evenodd" d="M58.454,170.297c-1.684,0.544-3.361,1.531-5.054,1.559
		c-9.471,0.153-19.157,1.295-28.357-0.292c-8.131-1.403-15.741-5.893-23.518-9.167c-0.608-0.256-1-1.671-1.022-2.559
		c-0.106-4.125-0.047-8.254-0.047-12.906c11.588,0.063,22.266,2.628,32.709,6.377c0.994,0.356,2.025,1.406,2.464,2.392
		c3.81,8.534,11.058,11.406,19.634,12.248c0.911,0.089,1.791,0.501,2.686,0.764C58.117,169.24,58.286,169.769,58.454,170.297z"/>
	<path fill-rule="evenodd" clip-rule="evenodd" d="M320.167,133.52c0.808,12.372-3.915,20.068-14.441,23.219
		c-13.094,3.919-26.213,8.142-40.764,7.052c4.641-2.306,8.841-4.291,12.924-6.493c1.035-0.558,2.153-1.677,2.461-2.757
		c2.537-8.937,13.611-18.649,22.829-19.627C308.708,134.326,314.27,133.994,320.167,133.52z"/>
	<path fill-rule="evenodd" clip-rule="evenodd" d="M291.637,249.396c-7.229,4.145-13.387,8.198-20.018,11.211
		c-2.527,1.148-6.387,0.618-9.212-0.369c-9.711-3.391-16.841-9.854-20.855-19.941c1.015-0.653,2.241-2.13,3.394-2.074
		c7.837,0.383,15.799,0.378,23.441,1.9c6.934,1.382,13.52,4.52,20.234,6.946C289.323,247.321,289.867,248.006,291.637,249.396z"/>
</g>
</svg>
